<svg width="100" height="72" viewBox="0 0 100 72" fill="none" xmlns="http://www.w3.org/2000/svg">
<path d="M99.0138 27.0882C98.7425 26.8728 96.2107 24.9611 90.8713 24.9611C89.4615 24.9673 88.0546 25.0882 86.6643 25.3227C85.6309 18.2396 79.7748 14.7862 79.5123 14.6313L78.0785 13.8044L77.1355 15.1652C75.9546 16.9931 75.0925 19.0081 74.5865 21.1245C73.6305 25.1678 74.2118 28.9655 76.2657 32.2122C73.7855 33.5944 69.8069 33.9346 69.0018 33.9647H3.13026C1.40972 33.967 0.0135775 35.3574 0.00420084 37.0778C-0.0726317 42.8485 0.905059 48.5848 2.88913 54.0042C5.15828 59.955 8.53415 64.3384 12.9262 67.021C17.8478 70.0351 25.8439 71.7574 34.9077 71.7574C39.0024 71.7703 43.0893 71.3997 47.115 70.6509C52.711 69.6233 58.0959 67.6674 63.0468 64.8637C67.1262 62.5013 70.7976 59.496 73.9192 55.9634C79.1379 50.0557 82.2469 43.4762 84.559 37.629H85.4805C91.1944 37.629 94.7081 35.3425 96.6457 33.4264C97.9334 32.2044 98.9386 30.7157 99.5909 29.0646L100 27.8676L99.0138 27.0882Z" fill="#2496ED"/>
<path d="M9.23604 32.0357H18.0631C18.4888 32.0357 18.8338 31.6906 18.8338 31.265V23.4024C18.8362 22.9766 18.493 22.6297 18.0674 22.6273C18.066 22.6273 18.0645 22.6273 18.0631 22.6273H9.23604C8.81031 22.6273 8.46533 22.9724 8.46533 23.398V23.4024V31.2649C8.46533 31.6906 8.81031 32.0357 9.23604 32.0357Z" fill="#2496ED"/>
<path d="M21.4002 32.0357H30.2272C30.653 32.0357 30.998 31.6906 30.998 31.265V23.4024C31.0003 22.9766 30.6572 22.6297 30.2314 22.6273C30.23 22.6273 30.2285 22.6273 30.2271 22.6273H21.4C20.9719 22.6273 20.625 22.9743 20.625 23.4024V31.2649C20.6275 31.6913 20.9738 32.0357 21.4002 32.0357Z" fill="#2496ED"/>
<path d="M33.7494 32.0357H42.5764C43.0022 32.0357 43.3471 31.6906 43.3471 31.265V23.4024C43.3495 22.9766 43.0064 22.6297 42.5806 22.6273C42.5792 22.6273 42.5777 22.6273 42.5763 22.6273H33.7492C33.3235 22.6273 32.9785 22.9724 32.9785 23.398V23.4024V31.2649C32.9787 31.6906 33.3238 32.0357 33.7494 32.0357Z" fill="#2496ED"/>
<path d="M45.9523 32.0357H54.7794C55.2058 32.0357 55.5521 31.6915 55.5545 31.265V23.4024C55.5545 22.9743 55.2075 22.6273 54.7794 22.6273H45.9523C45.5266 22.6273 45.1816 22.9724 45.1816 23.398V23.4024V31.2649C45.1816 31.6906 45.5268 32.0357 45.9523 32.0357Z" fill="#2496ED"/>
<path d="M21.4003 20.7242H30.2274C30.6536 20.7218 30.9981 20.3754 30.9981 19.9492V12.0866C30.9981 11.6609 30.6529 11.3159 30.2274 11.3159H21.4003C20.974 11.3159 20.6276 11.6602 20.6252 12.0866V19.9492C20.6276 20.3763 20.9732 20.7218 21.4003 20.7242Z" fill="#2496ED"/>
<path d="M33.7495 20.7242H42.5765C43.0028 20.7218 43.3472 20.3754 43.3472 19.9492V12.0866C43.3472 11.6609 43.0021 11.3159 42.5765 11.3159H33.7495C33.3237 11.3159 32.9788 11.661 32.9788 12.0866V19.9492C32.9788 20.3754 33.3232 20.7218 33.7495 20.7242Z" fill="#2496ED"/>
<path d="M45.9523 20.7242H54.7794C55.2065 20.7218 55.5521 20.3763 55.5545 19.9492V12.0866C55.5521 11.6602 55.2058 11.3159 54.7794 11.3159H45.9523C45.5266 11.3159 45.1816 11.661 45.1816 12.0866V19.9492C45.1816 20.3754 45.5261 20.7218 45.9523 20.7242Z" fill="#2496ED"/>
<path d="M45.9523 9.40842H54.7794C55.2058 9.40842 55.5521 9.064 55.5545 8.63771V0.770705C55.5521 0.344277 55.2058 0 54.7794 0H45.9523C45.5266 0 45.1816 0.344977 45.1816 0.770705V8.63757C45.1816 9.0633 45.5268 9.40842 45.9523 9.40842Z" fill="#2496ED"/>
<path d="M58.2629 32.0357H67.09C67.5164 32.0357 67.8626 31.6915 67.865 31.265V23.4024C67.865 22.9743 67.5181 22.6273 67.09 22.6273H58.2629C57.8373 22.6273 57.4922 22.9724 57.4922 23.398V23.4024V31.2649C57.4922 31.6906 57.8373 32.0357 58.2629 32.0357Z" fill="#2496ED"/>
</svg>
