<svg width="84" height="31" viewBox="0 0 84 31" fill="none" xmlns="http://www.w3.org/2000/svg">
<path d="M42.2091 9.19592C42.3133 9.09518 42.3743 8.95787 42.379 8.81286H42.381C42.4513 6.05284 41.8125 3.89701 40.484 2.40457C39.081 0.829299 36.9323 0.0203967 34.0969 0C31.2665 0 28.8285 0.88427 27.0455 2.5573C25.3593 4.14052 24.4077 6.33217 24.3649 8.72828C24.2926 12.8599 26.6267 15.4873 29.2299 18.0304C31.2451 20.1037 31.615 21.1287 31.5946 22.2983C31.5701 23.6514 30.9262 24.4278 29.8269 24.4278C29.3735 24.4278 29.0098 24.287 28.749 24.0099C28.3414 23.582 28.1611 22.8087 28.2273 21.7737C28.2384 21.7045 28.2345 21.6337 28.2158 21.5662C28.2079 21.5374 28.1973 21.5095 28.1844 21.4827C28.1669 21.4469 28.1451 21.4133 28.1193 21.3824C28.0678 21.3175 28.0025 21.2648 27.9282 21.2282C27.8538 21.1914 27.7723 21.1717 27.6894 21.1705H21.7394C21.5942 21.17 21.4547 21.2262 21.3503 21.3272C21.2459 21.428 21.1848 21.5655 21.18 21.7105C21.0404 24.5795 21.7088 26.8025 23.1668 28.3175C24.6033 29.8092 26.7632 30.5652 29.5905 30.5652C35.1269 30.5652 38.7652 27.1062 38.8599 21.7553C38.918 18.4461 37.7107 15.9427 34.698 13.1166C32.4097 10.8975 31.6058 9.60559 31.6313 8.18429C31.6537 6.90975 32.4199 6.18019 33.6078 6.18019C34.7958 6.18019 35.3765 6.9973 35.3765 8.6753C35.3765 9.04717 35.6914 9.35287 36.0683 9.35287H41.8207C41.9656 9.35312 42.1049 9.29665 42.2091 9.19592Z" fill="#8AC640"/>
<path d="M24.2589 14.2891V14.2759H24.2559C24.261 13.9988 24.0684 13.7451 23.7953 13.7096C23.7719 13.7043 23.7465 13.7043 23.722 13.7043H13.1974V13.7165C12.9253 13.7491 12.7043 13.9337 12.6502 14.1772L11.554 18.9391C11.5394 19.0032 11.5399 19.0699 11.5552 19.1338C11.5706 19.1977 11.6005 19.2574 11.6426 19.3079C11.6976 19.3726 11.7659 19.4246 11.843 19.4602C11.9201 19.4957 12.004 19.5139 12.0889 19.5136H13.6925C13.7852 19.5136 13.9065 19.5271 13.9503 19.584C13.9921 19.639 13.989 19.7624 13.9452 19.9213C13.6334 21.0655 12.8917 22.3197 11.9707 23.045C11.0487 23.7693 9.52649 24.2034 8.45977 23.5495C7.25656 22.8107 7.05278 21.0287 7.00284 19.7614C6.89787 17.0389 7.43074 14.3055 8.47712 11.789C9.22595 9.98765 10.6381 6.73762 13.0323 6.73762C14.3894 6.73762 15.072 7.85819 15.123 10.1608C15.1242 10.2123 15.1347 10.2628 15.1536 10.31C15.1748 10.3628 15.2063 10.4113 15.2471 10.4523C15.3242 10.5299 15.4282 10.5752 15.5377 10.5784H21.7832C21.9292 10.5784 22.0693 10.5212 22.1737 10.4192C22.2782 10.3172 22.3388 10.1784 22.3424 10.0324C22.3384 6.70279 21.5783 4.15993 20.0807 2.47073C18.6645 0.874072 16.6288 0.0743732 14.0359 0.0967598C5.51227 0.0967598 1.08544 8.70888 0.148066 17.2439C-0.37149 21.7899 0.486352 25.5635 2.56277 27.8683C4.13381 29.6125 5.98605 30.4958 8.73283 30.4958C11.7903 30.4958 14.0787 29.8172 15.935 28.3623C18.1173 26.6537 19.7699 23.8081 20.9905 19.6676C21.004 19.6218 21.032 19.5818 21.0701 19.5532C21.1083 19.5243 21.1547 19.5089 21.2024 19.5087H22.5259C22.8356 19.5087 23.1046 19.3119 23.1637 19.043L24.2589 14.2891Z" fill="#8AC640"/>
<path fill-rule="evenodd" clip-rule="evenodd" d="M60.2087 29.5585L60.2464 1.09918C60.2475 1.02804 60.2343 0.957151 60.2076 0.890986C60.1956 0.861386 60.181 0.832781 60.164 0.805917C60.1432 0.772835 60.1188 0.74224 60.0912 0.714381C60.0679 0.690751 60.0426 0.669608 60.0155 0.650952C59.9842 0.629312 59.9506 0.610905 59.9152 0.596478C59.8493 0.569366 59.7787 0.555685 59.7074 0.556182H50.8048C50.5052 0.556182 50.3738 0.813877 50.2882 0.984015L37.3979 29.3841V29.3894L37.3928 29.3966C37.2501 29.7458 37.5211 30.1199 37.8991 30.1199H44.1222C44.4584 30.1199 44.6816 30.0179 44.7906 29.806L46.0264 26.8361C46.1782 26.4398 46.2068 26.403 46.6387 26.403H52.5847C52.9983 26.403 53.0065 26.4112 53.0004 26.8157L52.8669 29.5769C52.8664 29.6073 52.8686 29.6376 52.8732 29.6675C52.8795 29.7075 52.8903 29.7468 52.9056 29.7846C52.9321 29.8508 52.9716 29.9107 53.0217 29.9615C53.0718 30.012 53.1315 30.052 53.1973 30.0791C53.2631 30.1065 53.3337 30.1202 53.4048 30.1199H59.6921C59.7699 30.1209 59.847 30.1047 59.918 30.0727C59.9889 30.0406 60.0519 29.9936 60.1027 29.9344C60.1465 29.8831 60.1786 29.8229 60.1969 29.758C60.2152 29.6931 60.2192 29.6252 60.2087 29.5585ZM49.195 20.0569C49.1481 20.0569 49.1012 20.0554 49.0544 20.0517C49.0326 20.0499 49.0115 20.0432 48.9925 20.0325C48.9735 20.0216 48.9571 20.0067 48.9445 19.9887C48.9384 19.9803 48.9332 19.9711 48.9291 19.9616C48.9247 19.9512 48.9214 19.9402 48.9194 19.929C48.9172 19.9169 48.9165 19.9047 48.9173 19.8925C48.918 19.8828 48.9195 19.8733 48.922 19.8641C48.929 19.8407 48.9377 19.8124 48.9487 19.7793C48.9568 19.7549 48.9662 19.7281 48.977 19.6992L53.4354 8.66709C53.4755 8.55839 53.5217 8.45193 53.574 8.34821C53.6463 8.19946 53.7339 8.18926 53.7614 8.29946C53.7849 8.39099 53.25 19.6268 53.25 19.6268C53.2082 20.0477 53.1889 20.0649 52.7742 20.0997L49.1991 20.0589H49.1909L49.195 20.0569Z" fill="#8AC640"/>
<path fill-rule="evenodd" clip-rule="evenodd" d="M68.1648 0.556182H72.8912L72.8963 0.553198C79.8671 0.553198 83.3475 3.71269 83.2375 9.94786C83.1091 17.2541 78.6568 22.6234 71.9528 23.8611C71.0002 24.0365 70.0313 24.1046 69.0634 24.0997L65.8265 24.0852C65.7735 24.085 65.7224 24.1056 65.6843 24.1424C65.6462 24.1795 65.6241 24.23 65.6228 24.283C65.6221 24.3188 65.6316 24.3541 65.6501 24.3847C65.6687 24.4153 65.6956 24.4402 65.7277 24.4561L66.122 24.6611L67.1408 25.1929L68.1648 25.7257C68.2705 25.7809 68.3765 25.8361 68.4826 25.8906C68.7088 26.009 68.7964 26.2045 68.7455 26.4572L68.0282 29.6941C67.9692 29.964 67.7521 30.1199 67.4342 30.1199H61.527C61.4423 30.1199 61.3586 30.1015 61.2818 30.0659C61.2049 30.0304 61.1366 29.9786 61.0818 29.9142C61.0395 29.8635 61.0095 29.8038 60.9939 29.7396C60.9784 29.6754 60.9778 29.6088 60.9921 29.5443L67.5698 0.986254C67.635 0.688761 67.9151 0.556182 68.1648 0.556182ZM71.1561 17.5506H71.2824C74.3848 17.4252 76.0761 13.7593 76.1382 10.2026C76.1738 8.14773 75.424 6.94432 74.0791 6.90353H69.7582C69.7059 6.90353 69.6556 6.92392 69.6181 6.96049C69.5806 6.99705 69.5588 7.0468 69.5575 7.09929C69.5566 7.1351 69.5658 7.17067 69.584 7.20152C69.6022 7.23261 69.6286 7.25773 69.6604 7.2744C69.6604 7.2744 72.3929 8.7151 72.5804 8.81907C72.7271 8.89942 72.7292 9.03598 72.6813 9.27352C72.6808 9.27875 72.2626 11.1169 71.8221 13.0551C71.3304 15.2182 70.8111 17.5061 70.8137 17.5098C70.8219 17.52 70.8718 17.5506 71.1561 17.5506Z" fill="#8AC640"/>
</svg>
