<svg width="74" height="100" viewBox="0 0 74 100" fill="none" xmlns="http://www.w3.org/2000/svg">
<path d="M23.7528 77.3358C23.7528 77.3358 19.9315 79.5579 26.4724 80.3099C34.3967 81.2138 38.4464 81.0844 47.1791 79.4314C47.1791 79.4314 49.4751 80.871 52.6811 82.118C33.1053 90.5078 8.37667 81.6319 23.7528 77.3358ZM21.3606 66.3873C21.3606 66.3873 17.0746 69.56 23.6204 70.237C32.0853 71.1102 38.7701 71.1817 50.3377 68.9543C50.3377 68.9543 51.9376 70.5763 54.4534 71.4634C30.7847 78.3845 4.42219 72.0092 21.3606 66.3873Z" fill="#5382A1"/>
<path d="M41.5268 47.8154C46.3504 53.3687 40.2595 58.3661 40.2595 58.3661C40.2595 58.3661 52.5071 52.0435 46.8823 44.1259C41.629 36.7427 37.6001 33.0737 59.4099 20.425C59.4099 20.425 25.1759 28.975 41.5268 47.8151" fill="#E76F00"/>
<path d="M67.4175 85.4339C67.4175 85.4339 70.2454 87.7638 64.303 89.5665C53.0036 92.9897 17.2732 94.0233 7.34731 89.7029C3.77937 88.151 10.4705 85.9968 12.5752 85.5445C14.7701 85.0685 16.0247 85.1574 16.0247 85.1574C12.0566 82.362 -9.62323 90.6462 5.0125 93.0183C44.9258 99.4912 77.7704 90.1039 67.4175 85.4339ZM25.5901 55.0436C25.5901 55.0436 7.41564 59.3606 19.1543 60.9279C24.1105 61.5915 33.9909 61.4415 43.1944 60.6702C50.7159 60.0361 58.2685 58.6869 58.2685 58.6869C58.2685 58.6869 55.6163 59.8227 53.6976 61.1329C35.2414 65.9869 -0.412529 63.7288 9.85179 58.7636C18.5324 54.5676 25.5904 55.0436 25.5904 55.0436H25.5901ZM58.1935 73.2676C76.9554 63.5183 68.2806 54.1495 62.2258 55.4119C60.7417 55.7206 60.0801 55.9881 60.0801 55.9881C60.0801 55.9881 60.6311 55.1253 61.6833 54.7518C73.6613 50.5405 82.8735 67.172 57.8165 73.759C57.8165 73.7593 58.1069 73.4998 58.1935 73.2676Z" fill="#5382A1"/>
<path d="M46.882 0.000289532C46.882 0.000289532 57.2726 10.3946 37.0271 26.3772C20.7926 39.1985 33.3251 46.5086 37.0205 54.8609C27.544 46.3109 20.5893 38.7841 25.2552 31.7791C32.103 21.4957 51.0742 16.5102 46.882 0" fill="#E76F00"/>
<path d="M27.4336 99.6857C45.4425 100.839 73.0969 99.0462 73.7518 90.5249C73.7518 90.5249 72.4929 93.7555 58.8685 96.3208C43.4977 99.2132 24.54 98.8756 13.2959 97.0217C13.2962 97.0217 15.5977 98.9269 27.4339 99.6857" fill="#5382A1"/>
</svg>
