<svg width="100" height="100" viewBox="0 0 100 100" fill="none" xmlns="http://www.w3.org/2000/svg">
<g clip-path="url(#clip0_867_18764)">
<path d="M95.8224 0H47.6677C47.6677 5.76524 49.9579 11.2943 54.0345 15.371C58.1112 19.4476 63.6403 21.7379 69.4055 21.7379H78.2761V30.3027C78.284 42.2972 88.0053 52.019 99.9999 52.0268V4.17744C99.9999 1.87096 98.1301 0 95.8224 0Z" fill="#2684FF"/>
<path d="M71.9957 23.9939H23.8412C23.8486 35.9884 33.57 45.7102 45.565 45.718H54.4356V54.3102C54.4509 66.3047 64.179 76.0198 76.1735 76.0198V28.1721C76.1735 25.8648 74.303 23.9943 71.9957 23.9943V23.9939Z" fill="url(#paint0_linear_867_18764)"/>
<path d="M48.1548 47.9739H0C0 59.9794 9.73272 69.7117 21.7378 69.7117H30.6363V78.2762C30.6442 90.2598 40.3487 99.9772 52.3326 99.9999V52.1517C52.3326 49.8444 50.4621 47.9739 48.1548 47.9739Z" fill="url(#paint1_linear_867_18764)"/>
</g>
<defs>
<linearGradient id="paint0_linear_867_18764" x1="75.1431" y1="24.0777" x2="54.7833" y2="45.3223" gradientUnits="userSpaceOnUse">
<stop offset="0.18" stop-color="#0052CC"/>
<stop offset="1" stop-color="#2684FF"/>
</linearGradient>
<linearGradient id="paint1_linear_867_18764" x1="52.6807" y1="48.2106" x2="29.1294" y2="71.3819" gradientUnits="userSpaceOnUse">
<stop offset="0.18" stop-color="#0052CC"/>
<stop offset="1" stop-color="#2684FF"/>
</linearGradient>
<clipPath id="clip0_867_18764">
<rect width="100" height="100" fill="white"/>
</clipPath>
</defs>
</svg>
