<svg width="100" height="100" viewBox="0 0 100 100" fill="none" xmlns="http://www.w3.org/2000/svg">
<path d="M5.85743 68.0258C5.95326 68.2425 6.06159 68.4425 6.17826 68.6425C6.23243 68.7591 6.30743 68.88 6.3741 68.9883C6.48243 69.205 6.5991 69.4133 6.7116 69.6216L7.36577 70.7216C7.48661 70.9258 7.60328 71.1258 7.74078 71.3258C7.96995 71.7175 8.24078 72.1008 8.47829 72.4925C8.58662 72.655 8.68662 72.8175 8.80746 72.98C9.26579 73.6925 9.68247 74.2842 10.1283 74.8592C10.445 75.2884 10.7616 75.7092 11.1033 76.13C11.2158 76.2884 11.3408 76.4467 11.4575 76.605L12.3783 77.7217C12.4908 77.8509 12.6033 78.0009 12.7242 78.1342C13.1325 78.6259 13.5658 79.1009 13.9992 79.5842C13.9992 79.5926 14.0117 79.6009 14.02 79.6134C14.5575 80.2884 15.1367 80.8884 15.77 81.4218L15.7867 81.4384C16.12 81.7801 16.4534 82.1176 16.8075 82.4509L17.2284 82.8551C17.6909 83.2884 18.1534 83.7176 18.6409 84.1343C18.6492 84.1343 18.6534 84.1426 18.6617 84.1468L18.8992 84.3551C19.3242 84.7259 19.7534 85.0926 20.1909 85.4343L20.7118 85.8718C21.0659 86.1551 21.4326 86.4218 21.7951 86.701L22.3618 87.1343C22.7493 87.426 23.1618 87.7093 23.5576 87.9926C23.7034 88.0968 23.8493 88.201 23.9993 88.2968L24.1201 88.3926L25.291 89.1593L25.791 89.4927C26.4035 89.8843 27.0118 90.251 27.6202 90.6177C27.7952 90.7052 27.9702 90.801 28.1327 90.901C28.5827 91.1593 29.0493 91.4218 29.5035 91.6593C29.7535 91.801 30.0119 91.9218 30.2702 92.051C30.5827 92.226 30.9077 92.3968 31.241 92.5718C31.3327 92.601 31.4077 92.6302 31.4827 92.6718L31.4994 92.6552C31.6369 92.7177 31.766 92.7844 31.8994 92.851C32.3994 93.101 32.9202 93.3385 33.4619 93.5719C33.5619 93.6135 33.6702 93.6552 33.7786 93.7135C34.3786 93.976 34.9786 94.226 35.5994 94.4677C35.7411 94.5094 35.8911 94.5802 36.0369 94.6344C36.5994 94.8469 37.1786 95.0635 37.7536 95.2677L37.9619 95.3427C38.5994 95.5594 39.2286 95.7677 39.8786 95.9635C40.0286 96.0052 40.1828 96.0594 40.3411 96.101C41.0036 96.301 41.6453 96.5386 42.3162 96.6636C85.1208 104.426 97.5584 71.055 97.5584 71.055C87.1083 84.5968 68.5623 88.1676 50.9996 84.1926C50.3496 84.0426 49.6996 83.8343 49.0412 83.6426C48.112 83.3796 47.1908 83.0892 46.2787 82.7718L46.6745 82.8926L46.4162 82.7926C45.8495 82.6009 45.3037 82.3884 44.7495 82.1759C44.6139 82.1184 44.4763 82.0656 44.337 82.0176L44.2912 82.0051C43.6787 81.7593 43.0828 81.5092 42.4912 81.2467C42.362 81.2051 42.2536 81.1467 42.1245 81.0967C41.4237 80.7913 40.7291 80.4718 40.0411 80.1384L40.6161 80.3926C40.4661 80.3262 40.3188 80.254 40.1745 80.1759C39.7828 79.9926 39.3911 79.7842 39.0078 79.5884C38.7158 79.45 38.4282 79.3027 38.1453 79.1467L38.2286 79.1884C37.7578 78.9384 37.2869 78.6676 36.8119 78.4134C36.6703 78.3134 36.5078 78.2301 36.3453 78.1384C35.6392 77.728 34.9418 77.3029 34.2536 76.8634L34.5161 77.0217C34.3397 76.9128 34.1673 76.7974 33.9994 76.6759L34.0244 76.6925C33.5766 76.4175 33.1374 76.1284 32.7077 75.8259C32.566 75.7342 32.4369 75.6342 32.291 75.5342C31.8421 75.2278 31.4003 74.911 30.966 74.5842L31.066 74.655C30.891 74.5134 30.7035 74.38 30.516 74.2425C30.1494 73.955 29.7785 73.68 29.4118 73.38L28.9202 72.9883C28.3962 72.5714 27.8821 72.1421 27.3785 71.7008L27.3743 71.6967L25.9285 70.3842L25.5118 69.9925C25.1701 69.6466 24.8201 69.3175 24.4701 68.9758L24.066 68.5591C23.6346 68.1319 23.2136 67.6943 22.8034 67.2466L22.7784 67.2175L22.7076 67.1591C22.2664 66.6746 21.8317 66.1843 21.4034 65.6883C21.2909 65.5591 21.1868 65.4216 21.0701 65.2841L20.1242 64.1383C19.6979 63.6027 19.2811 63.0596 18.8742 62.5091L18.7076 62.2757C8.96579 49.0423 5.44075 30.7796 13.2367 15.7961L6.35326 24.5004C-2.501 37.163 -1.40515 53.6298 5.36575 67.0758C5.51992 67.405 5.69076 67.7133 5.85743 68.0258Z" fill="#1266A9"/>
<path d="M35.6786 49.7842L35.6327 49.7175L35.5952 49.6675L35.6786 49.7842Z" fill="black"/>
<path d="M40.3369 55.2506L40.7119 55.6256C41.1869 56.0839 41.6744 56.5298 42.1703 56.9756L42.2328 57.0298C42.7328 57.4715 43.2953 57.934 43.8744 58.384L43.9619 58.4506C44.1036 58.5465 44.2244 58.659 44.3619 58.7548C44.9453 59.2048 45.5328 59.634 46.1453 60.0632L46.2078 60.1007C46.4661 60.2882 46.7411 60.459 47.0328 60.6423C47.1495 60.7173 47.2828 60.8173 47.4078 60.8923C47.8495 61.1757 48.2828 61.4382 48.7286 61.709C48.7995 61.7382 48.862 61.7757 48.9286 61.8048C49.3037 62.034 49.712 62.2548 50.1037 62.4548C50.2412 62.5382 50.3745 62.6007 50.5162 62.6798C50.7953 62.8173 51.0703 62.9632 51.337 63.1048L51.4703 63.1632C52.0328 63.4382 52.6079 63.6965 53.1704 63.9507C53.312 64.0049 53.4329 64.0507 53.5537 64.109C54.0162 64.309 54.487 64.5007 54.9495 64.6757C55.1579 64.7465 55.3537 64.8299 55.5495 64.8924C55.9746 65.0507 56.4204 65.1965 56.8412 65.3424L57.4246 65.5299C58.0329 65.7174 58.6496 65.9632 59.2954 66.0632C92.3499 71.5049 100 46.1838 100 46.1838C93.1124 56.0464 79.7831 60.7465 65.5788 57.0756C64.8698 56.8968 64.1666 56.6953 63.4705 56.4715L63.708 56.5381C63.508 56.4839 63.333 56.4214 63.1413 56.3631C62.708 56.2131 62.2621 56.0673 61.8413 55.9131L61.2413 55.6881C60.7746 55.5006 60.2996 55.3256 59.8454 55.1256C59.7038 55.0631 59.5746 55.0214 59.4663 54.9589C58.8829 54.6964 58.2954 54.4381 57.7246 54.1631L56.8662 53.7173L56.3704 53.4673C55.9871 53.2673 55.6329 53.0589 55.2662 52.8464C55.1727 52.8025 55.0822 52.7524 54.9954 52.6964L55.0079 52.7006C54.5662 52.4256 54.1079 52.1589 53.6829 51.8797C53.5412 51.8006 53.412 51.7047 53.2787 51.6214L52.412 51.0589C51.812 50.6422 51.2245 50.1964 50.6287 49.7631C50.4953 49.6422 50.3662 49.5422 50.237 49.4339C43.9911 44.5463 39.0661 37.8671 36.7285 30.3045C34.266 22.4419 34.8077 13.6252 39.0619 6.47095L33.8327 13.8377C27.4118 23.0086 27.7743 35.2671 32.7743 44.9672C33.6868 46.7589 34.6118 48.2714 35.6327 49.713C36.5827 51.0714 37.6327 52.6631 38.8994 53.7548C39.3494 54.2673 39.8327 54.7548 40.3369 55.2506Z" fill="#1266A9"/>
<path d="M56.9413 5.86254C53.1537 11.3918 52.7912 18.2585 55.3996 24.3544C58.1704 30.8294 63.833 35.9128 70.4331 38.3212C70.7039 38.4254 70.9664 38.5129 71.2456 38.6129L71.6123 38.7254C71.9956 38.8462 72.3831 38.9879 72.7789 39.0754C91.0333 42.5796 95.975 29.7503 97.3042 27.8628C92.9583 34.0711 85.6708 35.5628 76.729 33.4003C75.9515 33.2107 75.1862 32.9742 74.4373 32.692L74.5748 32.7378C73.6429 32.4153 72.7303 32.0397 71.8414 31.6128L71.9998 31.6836C70.2914 30.8503 68.8247 29.9503 67.4622 28.9169C59.4705 22.8752 54.5287 11.3709 59.7455 2L56.9413 5.86254Z" fill="#1266A9"/>
</svg>
