<?xml version="1.0" encoding="UTF-8"?>
<svg version="1.1" xmlns="http://www.w3.org/2000/svg" width="512" height="512">
<path d="M0 0 C1.69189453 0.54333984 1.69189453 0.54333984 3.41796875 1.09765625 C20.78624781 7.21909272 35.91885666 18.1368225 48 32 C48 32.66 48 33.32 48 34 C48.71800781 33.71125 49.43601562 33.4225 50.17578125 33.125 C64.01403626 28.16184004 79.44708883 27.86590536 93 34 C105.74806972 40.65189899 115.63913046 50.51218017 120.1015625 64.4375 C120.81962838 67.28291995 121.46298551 70.11546503 122 73 C122.58265625 73.02578125 123.1653125 73.0515625 123.765625 73.078125 C142.00587661 74.3400292 158.98 83.97398058 171.421875 97.140625 C185.81614082 114.10020552 192.50032631 134.83388873 191 157 C188.48936908 176.49198492 180.71036347 192.04994487 167 206 C166.38640625 206.62648437 165.7728125 207.25296875 165.140625 207.8984375 C151.56496843 220.71989093 132.53489784 227.14845916 114.05493164 227.11352539 C113.07316452 227.11374443 113.07316452 227.11374443 112.07156372 227.1139679 C109.93439273 227.11327801 107.79731178 227.10552946 105.66015625 227.09765625 C104.16800484 227.09578878 102.67585281 227.09436643 101.18370056 227.09336853 C97.27601396 227.08956925 93.36836514 227.07976135 89.46069336 227.06866455 C85.46533723 227.0583945 81.46997493 227.05385897 77.47460938 227.04882812 C69.64972245 227.03813652 61.82486654 227.02109154 54 227 C54.03738281 228.26658447 54.07476562 229.53316895 54.11328125 230.83813477 C54.20959085 234.10124503 54.15076871 234.78456971 52.1875 237.58984375 C47.67925595 240.99865084 42.90512789 243.76637946 38 246.5625 C36.94868896 247.19341553 35.89737793 247.82433105 34.81420898 248.47436523 C28.71790706 252.09191583 22.89379287 255.02821115 16.10180664 257.09960938 C9.16291268 260.41581057 9.16291268 260.41581057 4 266 C2.36666111 272.12863993 2.82582204 278.67998306 2.93359375 284.96484375 C2.93082993 286.71351231 2.92399295 288.46217946 2.91296387 290.21081543 C2.8948896 294.47530621 2.93234649 298.73604261 3 303 C3.72776579 302.99539104 4.45553158 302.99078207 5.20535088 302.98603344 C22.94234392 302.87544205 40.67926783 302.79278904 58.41653252 302.74093914 C66.99428594 302.71519613 75.57180871 302.68012069 84.14941406 302.62280273 C91.62874516 302.57284773 99.10790916 302.54068063 106.58740246 302.52955753 C110.54503967 302.5230591 114.50219897 302.50786865 118.45968246 302.47134972 C122.19113705 302.43719825 125.92192073 302.42698505 129.65351677 302.43446159 C131.66270927 302.43244828 133.67183011 302.40565393 135.68083191 302.37789917 C144.33090904 302.42675389 151.33500446 303.77744169 157.90717888 309.72629833 C162.0053568 313.97412355 164.78941203 319.3187389 165.13041687 325.27980042 C165.0305231 327.76048241 164.84437681 330.22170589 164.6328125 332.6953125 C162.72585311 351.7154296 162.72585311 351.7154296 168.21386719 369.21435547 C173.97548968 374.08580028 180.6838016 376.54709007 187.78808594 378.8671875 C192.45376118 380.51272818 196.45432102 382.93957872 200.625 385.5625 C201.9082175 386.31488898 203.1920334 387.06625871 204.4765625 387.81640625 C214.42586297 393.85172594 214.42586297 393.85172594 216 397 C216.12777747 399.15278471 216.19075182 401.30951265 216.22460938 403.46582031 C216.24169449 404.46129631 216.24169449 404.46129631 216.25912476 405.47688293 C216.36974153 412.41776039 216.41719968 419.35969645 216.45996094 426.30126953 C216.48223463 429.59379206 216.52399763 432.88518073 216.58300781 436.17724609 C216.65415531 440.15433678 216.69080057 444.13036074 216.70307922 448.10805511 C216.71347019 449.6215793 216.73587251 451.13507184 216.77067566 452.64823151 C217.02708334 464.40483712 217.02708334 464.40483712 214.59854126 468.17660522 C212.81257881 469.76757821 211.11061476 470.8847146 209 472 C208.02981934 472.61633301 207.05963867 473.23266602 206.06005859 473.86767578 C205.09922363 474.3882959 204.13838867 474.90891602 203.1484375 475.4453125 C202.05909912 476.0419873 200.96976074 476.63866211 199.84741211 477.25341797 C198.70151611 477.87104004 197.55562012 478.48866211 196.375 479.125 C194.57299305 480.10821559 192.77267266 481.09447069 190.97245789 482.08096313 C189.75901848 482.74575414 188.54507937 483.40963386 187.3306427 484.07260132 C181.48973589 487.26478959 175.70798988 490.5573503 169.9375 493.875 C168.23838794 494.85174812 166.53917934 495.82832832 164.83984375 496.8046875 C163.79364868 497.40772705 163.79364868 497.40772705 162.72631836 498.02294922 C159.22791609 500.00295288 157.07033114 500.29860998 153 500 C150.22119141 498.84521484 150.22119141 498.84521484 147.3515625 497.2109375 C146.27471191 496.60548096 145.19786133 496.00002441 144.08837891 495.3762207 C142.94546387 494.71581787 141.80254883 494.05541504 140.625 493.375 C139.43070341 492.69592993 138.23587155 492.01780045 137.04052734 491.34057617 C133.96038648 489.59052774 130.89016619 487.82381903 127.82275391 486.05157471 C126.04151495 485.02395061 124.25763968 484.00108426 122.47265625 482.97998047 C119.18589999 481.09800191 115.90401306 479.20793322 112.625 477.3125 C111.62807129 476.73741699 110.63114258 476.16233398 109.60400391 475.56982422 C97.85352878 468.70705757 97.85352878 468.70705757 96 465 C95.88256636 462.87230405 95.83018596 460.74091691 95.80712891 458.61010742 C95.79895142 457.95460403 95.79077393 457.29910065 95.78234863 456.62373352 C95.75750438 454.45098789 95.74098089 452.27830756 95.7265625 450.10546875 C95.72123882 449.36332941 95.71591515 448.62119007 95.71043015 447.85656166 C95.68370218 443.92806659 95.66432661 439.99960325 95.64990234 436.07104492 C95.63325894 432.01543293 95.58848413 427.96063429 95.5375309 423.9053297 C95.50385636 420.78517231 95.4923248 417.6652079 95.48667526 414.54488564 C95.47996276 413.05014139 95.4647404 411.55540985 95.44078445 410.06084251 C95.40912272 407.96591531 95.40909569 405.87318032 95.41650391 403.77807617 C95.40841705 402.58719894 95.4003302 401.39632172 95.39199829 400.1693573 C96.18003028 396.0615482 97.82700203 394.63383857 101 392 C102.96041605 390.71658496 104.97022499 389.50640156 107.015625 388.36328125 C107.8767691 387.87676338 107.8767691 387.87676338 108.75531006 387.38041687 C110.58262191 386.34998122 112.41591226 385.33081699 114.25 384.3125 C115.43273928 383.64988687 116.61503411 382.98647979 117.796875 382.32226562 C118.68260445 381.82644989 118.68260445 381.82644989 119.58622742 381.32061768 C120.79664991 380.63649298 122.00206447 379.94343666 123.20246887 379.24188232 C126.62225243 377.25708883 130.03034375 375.52557271 133.66674805 373.96777344 C141.69260244 370.50417059 141.69260244 370.50417059 146.89031982 363.87942505 C148.22693449 357.81156516 147.73651602 351.77295939 147.3125 345.625 C147.26144265 343.77753432 147.21776019 341.92984934 147.18164062 340.08203125 C147.12373061 338.31748145 147.05950143 336.55312521 146.98828125 334.7890625 C146.95559647 333.96612701 146.92291168 333.14319153 146.88923645 332.2953186 C146.8073835 331.14294205 146.8073835 331.14294205 146.72387695 329.96728516 C146.68148392 329.29573395 146.63909088 328.62418274 146.59541321 327.93228149 C145.72123284 325.09532302 144.27855311 323.8753654 142 322 C139.28211831 321.39719893 139.28211831 321.39719893 136.24200439 321.48101807 C135.06693832 321.46710526 133.89187225 321.45319244 132.68119812 321.43885803 C131.39582657 321.4438884 130.11045502 321.44891876 128.78613281 321.45410156 C127.41609015 321.44536558 126.04605769 321.4348797 124.67604065 321.42277527 C120.95937282 321.39489712 117.24303761 321.39151096 113.5262804 321.39249516 C109.64112192 321.38936758 105.75611359 321.36375266 101.87103271 321.34051514 C94.51527152 321.29993958 87.15959901 321.27961082 79.80374312 321.26654124 C71.42888127 321.25067643 63.05417045 321.21226304 54.67939615 321.17194796 C37.45297582 321.08952776 20.2265797 321.03544896 3 321 C2.82358758 327.22467413 2.73337749 333.44272804 2.72000122 339.66989136 C2.70367968 341.78360095 2.66455615 343.8972703 2.60147095 346.01010132 C1.74615101 358.59938127 1.74615101 358.59938127 6.68467712 369.59335327 C9.80364498 372.37170266 13.14337473 374.26932859 16.875 376.125 C17.63302917 376.51942291 18.39105835 376.91384583 19.17205811 377.32022095 C21.28122308 378.32828272 21.28122308 378.32828272 24.55078125 379.3046875 C31.20340651 381.60404643 37.05310324 384.60310805 43.0625 388.25 C43.83384277 388.68199707 44.60518555 389.11399414 45.39990234 389.55908203 C46.10453613 389.95724121 46.80916992 390.35540039 47.53515625 390.765625 C48.137229 391.10368164 48.73930176 391.44173828 49.35961914 391.79003906 C51.48056451 393.35446907 52.62108696 394.7340661 54 397 C54.38768005 400.02891541 54.38768005 400.02891541 54.40405273 403.61694336 C54.41434761 404.60063652 54.41434761 404.60063652 54.42485046 405.60420227 C54.44311205 407.76630468 54.43928215 409.92768096 54.43359375 412.08984375 C54.43815606 413.59672786 54.44346179 415.10360989 54.44947815 416.61048889 C54.45840807 419.7670233 54.45598785 422.92330469 54.44604492 426.07983398 C54.43455806 430.11965065 54.45476194 434.15859285 54.48396206 438.19829464 C54.50233269 441.30991642 54.50202991 444.421329 54.49632454 447.53299141 C54.49617141 449.02210275 54.5022087 450.51122835 54.51461601 452.00028801 C54.52954096 454.08529939 54.51884085 456.16870019 54.50170898 458.25366211 C54.50145973 460.03092934 54.50145973 460.03092934 54.50120544 461.84410095 C53.89691616 465.64907953 52.66186098 467.26597521 50 470 C47.34057617 471.83007812 47.34057617 471.83007812 44.29296875 473.53125 C42.59213135 474.49115845 42.59213135 474.49115845 40.85693359 475.47045898 C39.63389991 476.14717303 38.41075298 476.82368244 37.1875 477.5 C35.93515885 478.20222501 34.68337365 478.90544238 33.43212891 479.60961914 C30.87903124 481.04463145 28.32292748 482.47404861 25.76416016 483.89892578 C21.13276962 486.480013 16.52272005 489.09811891 11.91137695 491.71484375 C9.02336558 493.35332636 6.13379893 494.98897354 3.2421875 496.62109375 C2.4672998 497.0586499 1.69241211 497.49620605 0.89404297 497.94702148 C-2.76096239 499.9789934 -4.73685356 500.46732478 -9 500 C-12.44390204 498.56180163 -15.63839103 496.72621934 -18.875 494.875 C-19.82592529 494.34310059 -20.77685059 493.81120117 -21.7565918 493.26318359 C-24.84754087 491.5254846 -27.92503326 489.76581308 -31 488 C-32.59690674 487.08637695 -32.59690674 487.08637695 -34.22607422 486.15429688 C-62.83533683 469.74699475 -62.83533683 469.74699475 -66 465 C-66.27415466 462.09133911 -66.27415466 462.09133911 -66.30639648 458.49658203 C-66.31472 457.84093262 -66.32304352 457.1852832 -66.33161926 456.50976562 C-66.35571355 454.34238749 -66.36449055 452.17531036 -66.37109375 450.0078125 C-66.38006074 448.49950063 -66.3891826 446.99118968 -66.39845276 445.48287964 C-66.41494387 442.32043293 -66.42264303 439.1580921 -66.42553711 435.99560547 C-66.43092035 431.94781612 -66.46859575 427.90102503 -66.51428127 423.85351753 C-66.54405928 420.73762399 -66.55126081 417.62197058 -66.55226326 414.50594711 C-66.55646438 413.01401066 -66.56889461 411.52207342 -66.58978081 410.03027725 C-66.61671344 407.94017926 -66.61186764 405.85239133 -66.59936523 403.76220703 C-66.60443588 402.57434601 -66.60950653 401.38648499 -66.61473083 400.16262817 C-65.65539363 395.227091 -62.57422526 393.07360775 -58.5625 390.33764648 C-57.2940625 389.61170288 -57.2940625 389.61170288 -56 388.87109375 C-55.039729 388.31993896 -54.07945801 387.76878418 -53.09008789 387.20092773 C-52.07035889 386.61899658 -51.05062988 386.03706543 -50 385.4375 C-48.94868896 384.80078369 -47.89737793 384.16406738 -46.81420898 383.50805664 C-40.69377761 379.85048502 -35.04485864 377.04796973 -28.10180664 375.33984375 C-22.84920254 372.91627897 -19.07492448 371.10821279 -16 366 C-14.31871985 358.51632854 -14.82665094 350.62331538 -14.93359375 343.00390625 C-14.9308306 340.8721017 -14.92399568 338.7402983 -14.91296387 336.60852051 C-14.89487201 331.40476729 -14.92762821 326.20323976 -15 321 C-33.05439871 321.03715245 -51.10857247 321.09699202 -69.16279984 321.18390274 C-77.54554825 321.2237262 -85.92820233 321.25610183 -94.31103516 321.27099609 C-101.61681985 321.28399554 -108.92239728 321.31091626 -116.22806525 321.35461307 C-120.0970536 321.3772666 -123.96578594 321.39290837 -127.8348465 321.39188385 C-131.47605831 321.39113951 -135.11670341 321.40899815 -138.75776863 321.44116783 C-140.73220514 321.4537577 -142.70673659 321.44658518 -144.68119812 321.43885803 C-146.44379723 321.45972725 -146.44379723 321.45972725 -148.24200439 321.48101807 C-149.26335102 321.48470524 -150.28469765 321.48839241 -151.33699417 321.49219131 C-154.74314393 322.14171014 -155.91268463 323.27224629 -158 326 C-158.63948949 328.98989386 -159.0264283 331.62604206 -159.234375 334.6484375 C-159.32588081 335.91612724 -159.32588081 335.91612724 -159.41923523 337.20942688 C-160.90168459 353.76675837 -160.90168459 353.76675837 -155.99755859 369.04150391 C-150.60013107 373.82669209 -144.15072516 376.25942708 -137.43164062 378.67236328 C-131.6874964 380.89466382 -126.49713394 384.03150927 -121.1875 387.125 C-119.72171509 387.92683716 -119.72171509 387.92683716 -118.22631836 388.74487305 C-116.8671228 389.49377808 -116.8671228 389.49377808 -115.48046875 390.2578125 C-114.28780396 390.90967529 -114.28780396 390.90967529 -113.07104492 391.57470703 C-110.67643371 393.22267829 -109.5006731 394.50089599 -108 397 C-107.61231995 400.02891541 -107.61231995 400.02891541 -107.59594727 403.61694336 C-107.58908401 404.2727388 -107.58222076 404.92853424 -107.57514954 405.60420227 C-107.55688795 407.76630468 -107.56071785 409.92768096 -107.56640625 412.08984375 C-107.56184394 413.59672786 -107.55653821 415.10360989 -107.55052185 416.61048889 C-107.54159193 419.7670233 -107.54401215 422.92330469 -107.55395508 426.07983398 C-107.56544194 430.11965065 -107.54523806 434.15859285 -107.51603794 438.19829464 C-107.49766731 441.30991642 -107.49797009 444.421329 -107.50367546 447.53299141 C-107.50382859 449.02210275 -107.4977913 450.51122835 -107.48538399 452.00028801 C-107.47045904 454.08529939 -107.48115915 456.16870019 -107.49829102 458.25366211 C-107.49845718 459.43850693 -107.49862335 460.62335175 -107.49879456 461.84410095 C-108.10201958 465.64237826 -109.3475771 467.2678612 -112 470 C-114.36816406 471.63061523 -114.36816406 471.63061523 -117.015625 473.05859375 C-118.50509644 473.87505371 -118.50509644 473.87505371 -120.0246582 474.70800781 C-121.62120239 475.56410645 -121.62120239 475.56410645 -123.25 476.4375 C-125.49980958 477.66854347 -127.74847693 478.90167633 -129.99609375 480.13671875 C-131.14964355 480.76884277 -132.30319336 481.4009668 -133.49169922 482.05224609 C-140.19762681 485.75414927 -146.78094018 489.67157087 -153.38183594 493.55639648 C-154.32446289 494.11012939 -155.26708984 494.6638623 -156.23828125 495.234375 C-157.06368408 495.72131836 -157.88908691 496.20826172 -158.73950195 496.70996094 C-163.12541669 499.21294976 -165.82965234 500.68378148 -171 500 C-174.44021333 498.55189933 -177.63785587 496.72652543 -180.875 494.875 C-181.82592529 494.34310059 -182.77685059 493.81120117 -183.7565918 493.26318359 C-186.84754087 491.5254846 -189.92503326 489.76581308 -193 488 C-194.59690674 487.08637695 -194.59690674 487.08637695 -196.22607422 486.15429688 C-223.46997614 470.53002386 -223.46997614 470.53002386 -228 466 C-228.27415466 463.17362976 -228.27415466 463.17362976 -228.30639648 459.51831055 C-228.31472 458.85305359 -228.32304352 458.18779663 -228.33161926 457.50238037 C-228.3557675 455.29710072 -228.36449796 453.09211671 -228.37109375 450.88671875 C-228.38005801 449.35455739 -228.38917982 447.82239695 -228.39845276 446.29023743 C-228.41495949 443.07473624 -228.42264563 439.85933937 -228.42553711 436.64379883 C-228.43091603 432.52760584 -228.46856694 428.41239658 -228.51428127 424.29648113 C-228.54406092 421.12997382 -228.55126088 417.96370281 -228.55226326 414.79706764 C-228.55646555 413.28001218 -228.56890046 411.76295602 -228.58978081 410.24603844 C-228.61671105 408.11992112 -228.61186761 405.99607517 -228.59936523 403.86987305 C-228.60443588 402.66123093 -228.60950653 401.45258881 -228.61473083 400.20732117 C-227.66146125 395.23369441 -224.60273915 393.09305398 -220.5625 390.33764648 C-219.716875 389.85368408 -218.87125 389.36972168 -218 388.87109375 C-216.55959351 388.04411987 -216.55959351 388.04411987 -215.09008789 387.20043945 C-214.07035889 386.61866943 -213.05062988 386.03689941 -212 385.4375 C-210.94868896 384.80223389 -209.89737793 384.16696777 -208.81420898 383.51245117 C-203.56182287 380.37913797 -198.64008367 377.73940935 -192.78515625 375.9296875 C-186.56483504 373.77753732 -181.41907868 371.91083365 -178 366 C-175.0969909 354.60817845 -176.14116902 341.77427898 -176.95661926 330.15562439 C-177.35850338 323.13166779 -176.1294941 316.87286315 -171.4375 311.3125 C-165.80789164 305.47732328 -159.45481086 302.75861477 -151.36862183 302.39872742 C-148.82502805 302.38436147 -146.28118461 302.39723558 -143.73779297 302.43237305 C-142.32746939 302.43378626 -140.91714214 302.43298621 -139.50682068 302.43016052 C-135.70761836 302.42873557 -131.90921767 302.45797367 -128.11020041 302.49303031 C-124.12910198 302.52444928 -120.14798184 302.52723672 -116.16677856 302.53315735 C-108.64104277 302.54865044 -101.11567347 302.5896168 -93.5900985 302.6399048 C-85.01692567 302.6959402 -76.44373463 302.72332031 -67.87042403 302.74838197 C-50.24674218 302.80053724 -32.62340063 302.88839042 -15 303 C-14.82327221 297.90518757 -14.73336006 292.81847584 -14.72000122 287.72061157 C-14.70370098 285.99143652 -14.66463617 284.26230807 -14.60147095 282.53421021 C-14.00225502 272.98344233 -14.00225502 272.98344233 -17.20306206 264.28406143 C-20.61721583 260.81325804 -24.56540782 258.57528937 -28.875 256.375 C-29.63302917 255.97352753 -30.39105835 255.57205505 -31.17205811 255.15841675 C-33.28646513 254.11209547 -33.28646513 254.11209547 -36.55078125 252.9765625 C-43.09655899 250.44649944 -49.04885705 247.35626563 -55.0625 243.75 C-55.83384277 243.31864746 -56.60518555 242.88729492 -57.39990234 242.44287109 C-64.41859248 238.47048187 -64.41859248 238.47048187 -66 235 C-66.13333835 232.32725602 -66.04350342 229.67791488 -66 227 C-67.20910789 227.00999275 -67.20910789 227.00999275 -68.44264221 227.02018738 C-76.1050627 227.08074109 -83.76736429 227.12619641 -91.42996311 227.15543652 C-95.36772071 227.17097535 -99.30527772 227.19199284 -103.24291992 227.22631836 C-107.05551511 227.25933911 -110.86791954 227.27694111 -114.6806469 227.28463173 C-116.12243585 227.29009979 -117.56421647 227.30077273 -119.00592232 227.31719017 C-142.20995796 227.57048996 -162.55192102 221.35501013 -179.72265625 205.2421875 C-195.2919398 189.91325309 -202.72565103 170.8873161 -203.3125 149.125 C-202.92139388 127.10083648 -194.16445598 107.71150703 -178.52539062 92.40039062 C-166.91305388 81.73964102 -150.31719001 72.89721278 -134.25 72.8125 C-133.1775 72.874375 -132.105 72.93625 -131 73 C-130.773125 71.7625 -130.54625 70.525 -130.3125 69.25 C-124.97043177 45.54457225 -107.76685909 24.4413767 -87.64501953 11.38037109 C-61.90294375 -4.69115743 -29.03815612 -9.67938537 0 0 Z " fill="#D3D7E0" transform="translate(262,4)"/>
<path d="M0 0 C2.77880859 1.26831055 2.77880859 1.26831055 5.6484375 2.88671875 C7.26383423 3.79006958 7.26383423 3.79006958 8.91186523 4.71166992 C10.05469971 5.36369385 11.19753418 6.01571777 12.375 6.6875 C13.56880379 7.36159429 14.76289967 8.03517153 15.95727539 8.70825195 C19.03542038 10.44711922 22.10595455 12.19897186 25.17401123 13.95556641 C26.96223876 14.97840123 28.75252529 15.99753392 30.54345703 17.015625 C33.84683379 18.89708691 37.14364405 20.78942758 40.4375 22.6875 C41.44280762 23.26266357 42.44811523 23.83782715 43.48388672 24.43041992 C44.41604004 24.97287354 45.34819336 25.51532715 46.30859375 26.07421875 C47.52760376 26.77937622 47.52760376 26.77937622 48.77124023 27.4987793 C51.81532191 29.54917454 54.34505911 31.69011823 56 35 C56.11734084 37.09706909 56.16980016 39.19787301 56.19287109 41.2980957 C56.20104858 41.94384552 56.20922607 42.58959534 56.21765137 43.25491333 C56.24249426 45.39519321 56.2590188 47.53540679 56.2734375 49.67578125 C56.27876118 50.40688803 56.28408485 51.1379948 56.28956985 51.89125633 C56.3162973 55.76139655 56.33567298 59.63150457 56.35009766 63.50170898 C56.36674045 67.49679252 56.4115148 71.49105028 56.4624691 75.48582172 C56.49614614 78.5596561 56.50767547 81.63329461 56.51332474 84.70729637 C56.52003661 86.17971288 56.53525738 87.65211653 56.55921555 89.12435341 C56.59088279 91.18815753 56.59090361 93.24973684 56.58349609 95.3137207 C56.59158295 96.48683304 56.5996698 97.65994537 56.60800171 98.86860657 C55.65422296 103.78085674 52.5543398 105.93995395 48.5625 108.66235352 C47.716875 109.14631592 46.87125 109.63027832 46 110.12890625 C45.039729 110.68070557 44.07945801 111.23250488 43.09008789 111.80102539 C41.56049438 112.67295532 41.56049438 112.67295532 40 113.5625 C38.94868896 114.19341553 37.89737793 114.82433105 36.81420898 115.47436523 C30.71790706 119.09191583 24.89379287 122.02821115 18.10180664 124.09960938 C11.16291268 127.41581057 11.16291268 127.41581057 6 133 C4.36666111 139.12863993 4.82582204 145.67998306 4.93359375 151.96484375 C4.93082993 153.71351231 4.92399295 155.46217946 4.91296387 157.21081543 C4.8948896 161.47530621 4.93234649 165.73604261 5 170 C5.72776579 169.99539104 6.45553158 169.99078207 7.20535088 169.98603344 C24.94234392 169.87544205 42.67926783 169.79278904 60.41653252 169.74093914 C68.99428594 169.71519613 77.57180871 169.68012069 86.14941406 169.62280273 C93.62874516 169.57284773 101.10790916 169.54068063 108.58740246 169.52955753 C112.54503967 169.5230591 116.50219897 169.50786865 120.45968246 169.47134972 C124.19113705 169.43719825 127.92192073 169.42698505 131.65351677 169.43446159 C133.66270927 169.43244828 135.67183011 169.40565393 137.68083191 169.37789917 C146.33090904 169.42675389 153.33500446 170.77744169 159.90717888 176.72629833 C164.0053568 180.97412355 166.78941203 186.3187389 167.13041687 192.27980042 C167.0305231 194.76048241 166.84437681 197.22170589 166.6328125 199.6953125 C164.72585311 218.7154296 164.72585311 218.7154296 170.21386719 236.21435547 C175.97548968 241.08580028 182.6838016 243.54709007 189.78808594 245.8671875 C194.45376118 247.51272818 198.45432102 249.93957872 202.625 252.5625 C203.9082175 253.31488898 205.1920334 254.06625871 206.4765625 254.81640625 C216.42586297 260.85172594 216.42586297 260.85172594 218 264 C218.12777747 266.15278471 218.19075182 268.30951265 218.22460938 270.46582031 C218.24169449 271.46129631 218.24169449 271.46129631 218.25912476 272.47688293 C218.36974153 279.41776039 218.41719968 286.35969645 218.45996094 293.30126953 C218.48223463 296.59379206 218.52399763 299.88518073 218.58300781 303.17724609 C218.65415531 307.15433678 218.69080057 311.13036074 218.70307922 315.10805511 C218.71347019 316.6215793 218.73587251 318.13507184 218.77067566 319.64823151 C219.02708334 331.40483712 219.02708334 331.40483712 216.59854126 335.17660522 C214.81257881 336.76757821 213.11061476 337.8847146 211 339 C210.02981934 339.61633301 209.05963867 340.23266602 208.06005859 340.86767578 C207.09922363 341.3882959 206.13838867 341.90891602 205.1484375 342.4453125 C204.05909912 343.0419873 202.96976074 343.63866211 201.84741211 344.25341797 C200.70151611 344.87104004 199.55562012 345.48866211 198.375 346.125 C196.57299305 347.10821559 194.77267266 348.09447069 192.97245789 349.08096313 C191.75901848 349.74575414 190.54507937 350.40963386 189.3306427 351.07260132 C183.48973589 354.26478959 177.70798988 357.5573503 171.9375 360.875 C170.23838794 361.85174812 168.53917934 362.82832832 166.83984375 363.8046875 C165.79364868 364.40772705 165.79364868 364.40772705 164.72631836 365.02294922 C161.22791609 367.00295288 159.07033114 367.29860998 155 367 C152.22119141 365.84521484 152.22119141 365.84521484 149.3515625 364.2109375 C148.27471191 363.60548096 147.19786133 363.00002441 146.08837891 362.3762207 C144.94546387 361.71581787 143.80254883 361.05541504 142.625 360.375 C141.43070341 359.69592993 140.23587155 359.01780045 139.04052734 358.34057617 C135.96038648 356.59052774 132.89016619 354.82381903 129.82275391 353.05157471 C128.04151495 352.02395061 126.25763968 351.00108426 124.47265625 349.97998047 C121.18589999 348.09800191 117.90401306 346.20793322 114.625 344.3125 C113.62807129 343.73741699 112.63114258 343.16233398 111.60400391 342.56982422 C99.85352878 335.70705757 99.85352878 335.70705757 98 332 C97.88256636 329.87230405 97.83018596 327.74091691 97.80712891 325.61010742 C97.79895142 324.95460403 97.79077393 324.29910065 97.78234863 323.62373352 C97.75750438 321.45098789 97.74098089 319.27830756 97.7265625 317.10546875 C97.72123882 316.36332941 97.71591515 315.62119007 97.71043015 314.85656166 C97.68370218 310.92806659 97.66432661 306.99960325 97.64990234 303.07104492 C97.63325894 299.01543293 97.58848413 294.96063429 97.5375309 290.9053297 C97.50385636 287.78517231 97.4923248 284.6652079 97.48667526 281.54488564 C97.47996276 280.05014139 97.4647404 278.55540985 97.44078445 277.06084251 C97.40912272 274.96591531 97.40909569 272.87318032 97.41650391 270.77807617 C97.40841705 269.58719894 97.4003302 268.39632172 97.39199829 267.1693573 C98.18003028 263.0615482 99.82700203 261.63383857 103 259 C104.96041605 257.71658496 106.97022499 256.50640156 109.015625 255.36328125 C109.58972107 255.038936 110.16381714 254.71459076 110.75531006 254.38041687 C112.58262191 253.34998122 114.41591226 252.33081699 116.25 251.3125 C117.43273928 250.64988687 118.61503411 249.98647979 119.796875 249.32226562 C120.68260445 248.82644989 120.68260445 248.82644989 121.58622742 248.32061768 C122.79664991 247.63649298 124.00206447 246.94343666 125.20246887 246.24188232 C128.62225243 244.25708883 132.03034375 242.52557271 135.66674805 240.96777344 C143.69260244 237.50417059 143.69260244 237.50417059 148.89031982 230.87942505 C150.22693449 224.81156516 149.73651602 218.77295939 149.3125 212.625 C149.26144265 210.77753432 149.21776019 208.92984934 149.18164062 207.08203125 C149.12373061 205.31748145 149.05950143 203.55312521 148.98828125 201.7890625 C148.95559647 200.96612701 148.92291168 200.14319153 148.88923645 199.2953186 C148.83466782 198.52706757 148.78009918 197.75881653 148.72387695 196.96728516 C148.6602874 195.95995834 148.6602874 195.95995834 148.59541321 194.93228149 C147.72123284 192.09532302 146.27855311 190.8753654 144 189 C141.28211831 188.39719893 141.28211831 188.39719893 138.24200439 188.48101807 C137.06693832 188.46710526 135.89187225 188.45319244 134.68119812 188.43885803 C133.39582657 188.4438884 132.11045502 188.44891876 130.78613281 188.45410156 C129.41609015 188.44536558 128.04605769 188.4348797 126.67604065 188.42277527 C122.95937282 188.39489712 119.24303761 188.39151096 115.5262804 188.39249516 C111.64112192 188.38936758 107.75611359 188.36375266 103.87103271 188.34051514 C96.51527152 188.29993958 89.15959901 188.27961082 81.80374312 188.26654124 C73.42888127 188.25067643 65.05417045 188.21226304 56.67939615 188.17194796 C39.45297582 188.08952776 22.2265797 188.03544896 5 188 C4.82358758 194.22467413 4.73337749 200.44272804 4.72000122 206.66989136 C4.70367968 208.78360095 4.66455615 210.8972703 4.60147095 213.01010132 C3.74615101 225.59938127 3.74615101 225.59938127 8.68467712 236.59335327 C11.80364498 239.37170266 15.14337473 241.26932859 18.875 243.125 C19.63302917 243.51942291 20.39105835 243.91384583 21.17205811 244.32022095 C23.28122308 245.32828272 23.28122308 245.32828272 26.55078125 246.3046875 C33.20340651 248.60404643 39.05310324 251.60310805 45.0625 255.25 C45.83384277 255.68199707 46.60518555 256.11399414 47.39990234 256.55908203 C48.10453613 256.95724121 48.80916992 257.35540039 49.53515625 257.765625 C50.137229 258.10368164 50.73930176 258.44173828 51.35961914 258.79003906 C53.48056451 260.35446907 54.62108696 261.7340661 56 264 C56.38768005 267.02891541 56.38768005 267.02891541 56.40405273 270.61694336 C56.41434761 271.60063652 56.41434761 271.60063652 56.42485046 272.60420227 C56.44311205 274.76630468 56.43928215 276.92768096 56.43359375 279.08984375 C56.43815606 280.59672786 56.44346179 282.10360989 56.44947815 283.61048889 C56.45840807 286.7670233 56.45598785 289.92330469 56.44604492 293.07983398 C56.43455806 297.11965065 56.45476194 301.15859285 56.48396206 305.19829464 C56.50233269 308.30991642 56.50202991 311.421329 56.49632454 314.53299141 C56.49617141 316.02210275 56.5022087 317.51122835 56.51461601 319.00028801 C56.52954096 321.08529939 56.51884085 323.16870019 56.50170898 325.25366211 C56.50145973 327.03092934 56.50145973 327.03092934 56.50120544 328.84410095 C55.89691616 332.64907953 54.66186098 334.26597521 52 337 C49.34057617 338.83007813 49.34057617 338.83007813 46.29296875 340.53125 C44.59213135 341.49115845 44.59213135 341.49115845 42.85693359 342.47045898 C41.63389991 343.14717303 40.41075298 343.82368244 39.1875 344.5 C37.93515885 345.20222501 36.68337365 345.90544238 35.43212891 346.60961914 C32.87903124 348.04463145 30.32292748 349.47404861 27.76416016 350.89892578 C23.13276962 353.480013 18.52272005 356.09811891 13.91137695 358.71484375 C11.02336558 360.35332636 8.13379893 361.98897354 5.2421875 363.62109375 C4.4672998 364.0586499 3.69241211 364.49620605 2.89404297 364.94702148 C-0.76096239 366.9789934 -2.73685356 367.46732478 -7 367 C-10.44390204 365.56180163 -13.63839103 363.72621934 -16.875 361.875 C-17.82592529 361.34310059 -18.77685059 360.81120117 -19.7565918 360.26318359 C-22.84754087 358.5254846 -25.92503326 356.76581308 -29 355 C-30.59690674 354.08637695 -30.59690674 354.08637695 -32.22607422 353.15429688 C-60.83533683 336.74699475 -60.83533683 336.74699475 -64 332 C-64.27415466 329.09133911 -64.27415466 329.09133911 -64.30639648 325.49658203 C-64.31472 324.84093262 -64.32304352 324.1852832 -64.33161926 323.50976562 C-64.35571355 321.34238749 -64.36449055 319.17531036 -64.37109375 317.0078125 C-64.38006074 315.49950063 -64.3891826 313.99118968 -64.39845276 312.48287964 C-64.41494387 309.32043293 -64.42264303 306.1580921 -64.42553711 302.99560547 C-64.43092035 298.94781612 -64.46859575 294.90102503 -64.51428127 290.85351753 C-64.54405928 287.73762399 -64.55126081 284.62197058 -64.55226326 281.50594711 C-64.55646438 280.01401066 -64.56889461 278.52207342 -64.58978081 277.03027725 C-64.61671344 274.94017926 -64.61186764 272.85239133 -64.59936523 270.76220703 C-64.60443588 269.57434601 -64.60950653 268.38648499 -64.61473083 267.16262817 C-63.65539363 262.227091 -60.57422526 260.07360775 -56.5625 257.33764648 C-55.2940625 256.61170288 -55.2940625 256.61170288 -54 255.87109375 C-53.039729 255.31993896 -52.07945801 254.76878418 -51.09008789 254.20092773 C-50.07035889 253.61899658 -49.05062988 253.03706543 -48 252.4375 C-46.94868896 251.80078369 -45.89737793 251.16406738 -44.81420898 250.50805664 C-38.69377761 246.85048502 -33.04485864 244.04796973 -26.10180664 242.33984375 C-20.84920254 239.91627897 -17.07492448 238.10821279 -14 233 C-12.31871985 225.51632854 -12.82665094 217.62331538 -12.93359375 210.00390625 C-12.9308306 207.8721017 -12.92399568 205.7402983 -12.91296387 203.60852051 C-12.89487201 198.40476729 -12.92762821 193.20323976 -13 188 C-31.05439871 188.03715245 -49.10857247 188.09699202 -67.16279984 188.18390274 C-75.54554825 188.2237262 -83.92820233 188.25610183 -92.31103516 188.27099609 C-99.61681985 188.28399554 -106.92239728 188.31091626 -114.22806525 188.35461307 C-118.0970536 188.3772666 -121.96578594 188.39290837 -125.8348465 188.39188385 C-129.47605831 188.39113951 -133.11670341 188.40899815 -136.75776863 188.44116783 C-138.73220514 188.4537577 -140.70673659 188.44658518 -142.68119812 188.43885803 C-143.85626419 188.45277084 -145.03133026 188.46668365 -146.24200439 188.48101807 C-147.26335102 188.48470524 -148.28469765 188.48839241 -149.33699417 188.49219131 C-152.74314393 189.14171014 -153.91268463 190.27224629 -156 193 C-156.63948949 195.98989386 -157.0264283 198.62604206 -157.234375 201.6484375 C-157.32588081 202.91612724 -157.32588081 202.91612724 -157.41923523 204.20942688 C-158.90168459 220.76675837 -158.90168459 220.76675837 -153.99755859 236.04150391 C-148.60013107 240.82669209 -142.15072516 243.25942708 -135.43164062 245.67236328 C-129.6874964 247.89466382 -124.49713394 251.03150927 -119.1875 254.125 C-117.72171509 254.92683716 -117.72171509 254.92683716 -116.22631836 255.74487305 C-114.8671228 256.49377808 -114.8671228 256.49377808 -113.48046875 257.2578125 C-112.28780396 257.90967529 -112.28780396 257.90967529 -111.07104492 258.57470703 C-108.67643371 260.22267829 -107.5006731 261.50089599 -106 264 C-105.61231995 267.02891541 -105.61231995 267.02891541 -105.59594727 270.61694336 C-105.58908401 271.2727388 -105.58222076 271.92853424 -105.57514954 272.60420227 C-105.55688795 274.76630468 -105.56071785 276.92768096 -105.56640625 279.08984375 C-105.56184394 280.59672786 -105.55653821 282.10360989 -105.55052185 283.61048889 C-105.54159193 286.7670233 -105.54401215 289.92330469 -105.55395508 293.07983398 C-105.56544194 297.11965065 -105.54523806 301.15859285 -105.51603794 305.19829464 C-105.49766731 308.30991642 -105.49797009 311.421329 -105.50367546 314.53299141 C-105.50382859 316.02210275 -105.4977913 317.51122835 -105.48538399 319.00028801 C-105.47045904 321.08529939 -105.48115915 323.16870019 -105.49829102 325.25366211 C-105.49845718 326.43850693 -105.49862335 327.62335175 -105.49879456 328.84410095 C-106.10201958 332.64237826 -107.3475771 334.2678612 -110 337 C-112.36816406 338.63061523 -112.36816406 338.63061523 -115.015625 340.05859375 C-116.50509644 340.87505371 -116.50509644 340.87505371 -118.0246582 341.70800781 C-119.62120239 342.56410645 -119.62120239 342.56410645 -121.25 343.4375 C-123.49980958 344.66854347 -125.74847693 345.90167633 -127.99609375 347.13671875 C-129.14964355 347.76884277 -130.30319336 348.4009668 -131.49169922 349.05224609 C-138.19762681 352.75414927 -144.78094018 356.67157087 -151.38183594 360.55639648 C-152.32446289 361.11012939 -153.26708984 361.6638623 -154.23828125 362.234375 C-155.06368408 362.72131836 -155.88908691 363.20826172 -156.73950195 363.70996094 C-161.12541669 366.21294976 -163.82965234 367.68378148 -169 367 C-172.44021333 365.55189933 -175.63785587 363.72652543 -178.875 361.875 C-179.82592529 361.34310059 -180.77685059 360.81120117 -181.7565918 360.26318359 C-184.84754087 358.5254846 -187.92503326 356.76581308 -191 355 C-192.59690674 354.08637695 -192.59690674 354.08637695 -194.22607422 353.15429688 C-221.46997614 337.53002386 -221.46997614 337.53002386 -226 333 C-226.27415466 330.17362976 -226.27415466 330.17362976 -226.30639648 326.51831055 C-226.31472 325.85305359 -226.32304352 325.18779663 -226.33161926 324.50238037 C-226.3557675 322.29710072 -226.36449796 320.09211671 -226.37109375 317.88671875 C-226.38005801 316.35455739 -226.38917982 314.82239695 -226.39845276 313.29023743 C-226.41495949 310.07473624 -226.42264563 306.85933937 -226.42553711 303.64379883 C-226.43091603 299.52760584 -226.46856694 295.41239658 -226.51428127 291.29648113 C-226.54406092 288.12997382 -226.55126088 284.96370281 -226.55226326 281.79706764 C-226.55646555 280.28001218 -226.56890046 278.76295602 -226.58978081 277.24603844 C-226.61671105 275.11992112 -226.61186761 272.99607517 -226.59936523 270.86987305 C-226.60443588 269.66123093 -226.60950653 268.45258881 -226.61473083 267.20732117 C-225.66146125 262.23369441 -222.60273915 260.09305398 -218.5625 257.33764648 C-217.716875 256.85368408 -216.87125 256.36972168 -216 255.87109375 C-215.039729 255.31977783 -214.07945801 254.76846191 -213.09008789 254.20043945 C-212.07035889 253.61866943 -211.05062988 253.03689941 -210 252.4375 C-208.94868896 251.80223389 -207.89737793 251.16696777 -206.81420898 250.51245117 C-201.56182287 247.37913797 -196.64008367 244.73940935 -190.78515625 242.9296875 C-184.56483504 240.77753732 -179.41907868 238.91083365 -176 233 C-173.0969909 221.60817845 -174.14116902 208.77427898 -174.95661926 197.15562439 C-175.35850338 190.13166779 -174.1294941 183.87286315 -169.4375 178.3125 C-163.80789164 172.47732328 -157.45481086 169.75861477 -149.36862183 169.39872742 C-146.82502805 169.38436147 -144.28118461 169.39723558 -141.73779297 169.43237305 C-140.32746939 169.43378626 -138.91714214 169.43298621 -137.50682068 169.43016052 C-133.70761836 169.42873557 -129.90921767 169.45797367 -126.11020041 169.49303031 C-122.12910198 169.52444928 -118.14798184 169.52723672 -114.16677856 169.53315735 C-106.64104277 169.54865044 -99.11567347 169.5896168 -91.5900985 169.6399048 C-83.01692567 169.6959402 -74.44373463 169.72332031 -65.87042403 169.74838197 C-48.24674218 169.80053724 -30.62340063 169.88839042 -13 170 C-12.82327221 164.90518757 -12.73336006 159.81847584 -12.72000122 154.72061157 C-12.70370098 152.99143652 -12.66463617 151.26230807 -12.60147095 149.53421021 C-12.00225502 139.98344233 -12.00225502 139.98344233 -15.20306206 131.28406143 C-18.61721583 127.81325804 -22.56540782 125.57528937 -26.875 123.375 C-27.63302917 122.97352753 -28.39105835 122.57205505 -29.17205811 122.15841675 C-31.28646513 121.11209547 -31.28646513 121.11209547 -34.55078125 119.9765625 C-41.09655899 117.44649944 -47.04885705 114.35626563 -53.0625 110.75 C-53.83384277 110.31864746 -54.60518555 109.88729492 -55.39990234 109.44287109 C-56.10453613 109.04406738 -56.80916992 108.64526367 -57.53515625 108.234375 C-58.137229 107.89631836 -58.73930176 107.55826172 -59.35961914 107.20996094 C-61.4789227 105.64674194 -62.62179796 104.26332421 -64 102 C-64.3742218 99.00231934 -64.3742218 99.00231934 -64.37231445 95.45898438 C-64.37596512 94.81133621 -64.37961578 94.16368805 -64.38337708 93.49641418 C-64.3914634 91.36192356 -64.3778894 89.22819673 -64.36328125 87.09375 C-64.36276241 85.60689291 -64.36328104 84.12003512 -64.36479187 82.63317871 C-64.36470223 79.51950823 -64.35429048 76.40609713 -64.33618164 73.29248047 C-64.31349464 69.30435047 -64.31295125 65.31659932 -64.31969929 61.32842255 C-64.32304318 58.25889732 -64.31640127 55.18945822 -64.30657005 52.11994934 C-64.30272501 50.64956615 -64.30156695 49.17917337 -64.3031559 47.70878601 C-64.30352739 45.65267736 -64.29088346 43.59705162 -64.2746582 41.54101562 C-64.27005081 40.37171509 -64.26544342 39.20241455 -64.26069641 37.99768066 C-64.00467493 35.05375579 -63.64608771 33.42431229 -62 31 C-59.73033593 29.43847112 -57.52365499 28.08440341 -55.125 26.75 C-54.39974121 26.33524414 -53.67448242 25.92048828 -52.92724609 25.49316406 C-51.25874908 24.54041725 -49.58746737 23.59253756 -47.9140625 22.6484375 C-44.61138575 20.78016728 -41.3207655 18.89129643 -38.03125 17 C-25.51413058 9.81189377 -25.51413058 9.81189377 -20.23535156 6.83789062 C-18.11347193 5.63252465 -16.005255 4.40271243 -13.91308594 3.14648438 C-12.95950195 2.58767578 -12.00591797 2.02886719 -11.0234375 1.453125 C-10.19505371 0.95458008 -9.36666992 0.45603516 -8.51318359 -0.05761719 C-5.21331971 -1.294986 -3.37963704 -0.92717388 0 0 Z " fill="#42838E" transform="translate(260,137)"/>
<path d="M0 0 C1.2183934 0.60767074 2.42891367 1.23128357 3.6328125 1.8671875 C4.30554199 2.21265625 4.97827148 2.558125 5.67138672 2.9140625 C14.30522181 7.42969072 22.67475757 12.43175778 31.05859375 17.390625 C34.45093087 19.3962847 37.85275964 21.37290115 41.30078125 23.28125 C41.95095215 23.6421875 42.60112305 24.003125 43.27099609 24.375 C44.92590072 25.28755528 46.58577109 26.19108996 48.24609375 27.09375 C50.91837314 28.84756322 52.13698937 30.00518333 53.7578125 32.7421875 C54.14549255 35.77110291 54.14549255 35.77110291 54.16186523 39.35913086 C54.16872849 40.0149263 54.17559174 40.67072174 54.18266296 41.34638977 C54.20092455 43.50849218 54.19709465 45.66986846 54.19140625 47.83203125 C54.19596856 49.33891536 54.20127429 50.84579739 54.20729065 52.35267639 C54.21622057 55.5092108 54.21380035 58.66549219 54.20385742 61.82202148 C54.19237056 65.86183815 54.21257444 69.90078035 54.24177456 73.94048214 C54.26014519 77.05210392 54.25984241 80.1635165 54.25413704 83.27517891 C54.25398391 84.76429025 54.2600212 86.25341585 54.27242851 87.74247551 C54.28735346 89.82748689 54.27665335 91.91088769 54.25952148 93.99584961 C54.25935532 95.18069443 54.25918915 96.36553925 54.25901794 97.58628845 C53.65472866 101.39126703 52.41967348 103.00816271 49.7578125 105.7421875 C47.09838867 107.57226562 47.09838867 107.57226562 44.05078125 109.2734375 C42.91688965 109.91337646 41.78299805 110.55331543 40.61474609 111.21264648 C39.39171241 111.88936053 38.16856548 112.56586994 36.9453125 113.2421875 C35.69297135 113.94441251 34.44118615 114.64762988 33.18994141 115.35180664 C30.63684374 116.78681895 28.08073998 118.21623611 25.52197266 119.64111328 C20.89058212 122.2222005 16.28053255 124.84030641 11.66918945 127.45703125 C8.78117808 129.09551386 5.89161143 130.73116104 3 132.36328125 C1.83766846 133.01961548 1.83766846 133.01961548 0.65185547 133.68920898 C-3.00314989 135.7211809 -4.97904106 136.20951228 -9.2421875 135.7421875 C-12.68608954 134.30398913 -15.88057853 132.46840684 -19.1171875 130.6171875 C-20.06811279 130.08528809 -21.01903809 129.55338867 -21.9987793 129.00537109 C-25.08972837 127.2676721 -28.16722076 125.50800058 -31.2421875 123.7421875 C-32.30679199 123.13310547 -33.37139648 122.52402344 -34.46826172 121.89648438 C-63.07752433 105.48918225 -63.07752433 105.48918225 -66.2421875 100.7421875 C-66.51634216 97.83352661 -66.51634216 97.83352661 -66.54858398 94.23876953 C-66.5569075 93.58312012 -66.56523102 92.9274707 -66.57380676 92.25195312 C-66.59790105 90.08457499 -66.60667805 87.91749786 -66.61328125 85.75 C-66.62224824 84.24168813 -66.6313701 82.73337718 -66.64064026 81.22506714 C-66.65713137 78.06262043 -66.66483053 74.9002796 -66.66772461 71.73779297 C-66.67310785 67.69000362 -66.71078325 63.64321253 -66.75646877 59.59570503 C-66.78624678 56.47981149 -66.79344831 53.36415808 -66.79445076 50.24813461 C-66.79865188 48.75619816 -66.81108211 47.26426092 -66.83196831 45.77246475 C-66.85890094 43.68236676 -66.85405514 41.59457883 -66.84155273 39.50439453 C-66.84662338 38.31653351 -66.85169403 37.12867249 -66.85691833 35.90481567 C-65.89758113 30.9692785 -62.81641276 28.81579525 -58.8046875 26.07983398 C-57.53625 25.35389038 -57.53625 25.35389038 -56.2421875 24.61328125 C-54.8025061 23.78147339 -54.8025061 23.78147339 -53.33374023 22.93286133 C-52.31352783 22.35431396 -51.29331543 21.7757666 -50.2421875 21.1796875 C-49.18652588 20.57342529 -48.13086426 19.96716309 -47.04321289 19.3425293 C-44.85771384 18.088608 -42.6702757 16.83806066 -40.48095703 15.59082031 C-37.39273237 13.82811587 -34.31407028 12.04991968 -31.23828125 10.265625 C-29.38563185 9.19494008 -27.53277714 8.1246103 -25.6796875 7.0546875 C-24.83083984 6.56218506 -23.98199219 6.06968262 -23.10742188 5.56225586 C-7.99649274 -3.10225381 -7.99649274 -3.10225381 0 0 Z " fill="#41838E" transform="translate(262.2421875,368.2578125)"/>
<path d="M0 0 C1.200201 0.59848527 2.39245499 1.21306334 3.578125 1.83984375 C4.24497314 2.18273437 4.91182129 2.525625 5.59887695 2.87890625 C16.88693552 8.78639449 27.85395785 15.31217206 38.828125 21.77734375 C40.01849365 22.47633789 40.01849365 22.47633789 41.23291016 23.18945312 C51.45408233 29.21627975 51.45408233 29.21627975 53.828125 32.77734375 C54.11573792 35.71723938 54.11573792 35.71723938 54.16625977 39.35668945 C54.17779587 40.02048615 54.18933197 40.68428284 54.20121765 41.36819458 C54.2355138 43.5631954 54.2540241 45.75791513 54.26953125 47.953125 C54.27988561 49.07963502 54.27988561 49.07963502 54.29044914 50.22890282 C54.32627941 54.20395493 54.34982086 58.17886519 54.36352539 62.15405273 C54.38006913 66.25365184 54.4384849 70.35152455 54.50666904 74.4505434 C54.5515155 77.60851486 54.56502419 80.76607482 54.57014275 83.92433739 C54.57802416 85.43504686 54.59763328 86.94574379 54.62936592 88.45614052 C54.8594133 100.17982894 54.8594133 100.17982894 52.42443848 103.95172119 C50.63922515 105.54208479 48.93704261 106.66085196 46.828125 107.77734375 C45.85794434 108.39367676 44.88776367 109.01000977 43.88818359 109.64501953 C42.92734863 110.16563965 41.96651367 110.68625977 40.9765625 111.22265625 C39.88722412 111.81933105 38.79788574 112.41600586 37.67553711 113.03076172 C36.52964111 113.64838379 35.38374512 114.26600586 34.203125 114.90234375 C32.40111805 115.88555934 30.60079766 116.87181444 28.80058289 117.85830688 C27.58714348 118.52309789 26.37320437 119.18697761 25.1587677 119.84994507 C19.31786089 123.04213334 13.53611488 126.33469405 7.765625 129.65234375 C6.06651294 130.62909187 4.36730434 131.60567207 2.66796875 132.58203125 C1.97050537 132.98405762 1.27304199 133.38608398 0.55444336 133.80029297 C-2.94395891 135.78029663 -5.10154386 136.07595373 -9.171875 135.77734375 C-11.95068359 134.62255859 -11.95068359 134.62255859 -14.8203125 132.98828125 C-15.89716309 132.38282471 -16.97401367 131.77736816 -18.08349609 131.15356445 C-19.79786865 130.16296021 -19.79786865 130.16296021 -21.546875 129.15234375 C-22.74117159 128.47327368 -23.93600345 127.7951442 -25.13134766 127.11791992 C-28.21148852 125.36787149 -31.28170881 123.60116278 -34.34912109 121.82891846 C-36.13036005 120.80129436 -37.91423532 119.77842801 -39.69921875 118.75732422 C-42.98597501 116.87534566 -46.26786194 114.98527697 -49.546875 113.08984375 C-50.54380371 112.51476074 -51.54073242 111.93967773 -52.56787109 111.34716797 C-64.31834622 104.48440132 -64.31834622 104.48440132 -66.171875 100.77734375 C-66.28930864 98.6496478 -66.34168904 96.51826066 -66.36474609 94.38745117 C-66.37292358 93.73194778 -66.38110107 93.0764444 -66.38952637 92.40107727 C-66.41437062 90.22833164 -66.43089411 88.05565131 -66.4453125 85.8828125 C-66.45063618 85.14067316 -66.45595985 84.39853382 -66.46144485 83.63390541 C-66.48817282 79.70541034 -66.50754839 75.776947 -66.52197266 71.84838867 C-66.53861606 67.79277668 -66.58339087 63.73797804 -66.6343441 59.68267345 C-66.66801864 56.56251606 -66.6795502 53.44255165 -66.68519974 50.32222939 C-66.69191224 48.82748514 -66.7071346 47.3327536 -66.73109055 45.83818626 C-66.76275228 43.74325906 -66.76277931 41.65052407 -66.75537109 39.55541992 C-66.76345795 38.36454269 -66.7715448 37.17366547 -66.77987671 35.94670105 C-65.99184472 31.83889195 -64.34487297 30.41118232 -61.171875 27.77734375 C-59.21145895 26.49392871 -57.20165001 25.28374531 -55.15625 24.140625 C-54.58736557 23.8193161 -54.01848114 23.4980072 -53.43235779 23.16696167 C-51.59964999 22.13371775 -49.76091836 21.11176062 -47.921875 20.08984375 C-46.02087858 19.02223799 -44.12143903 17.95189916 -42.22209167 16.88136292 C-40.96563775 16.17341254 -39.70865156 15.46640597 -38.4511261 14.76036072 C-32.71158413 11.5340282 -27.04214758 8.19619781 -21.41113281 4.78442383 C-8.15409509 -3.14314256 -8.15409509 -3.14314256 0 0 Z " fill="#41828D" transform="translate(424.171875,368.22265625)"/>
<path d="M0 0 C1.50240234 0.78503906 1.50240234 0.78503906 3.03515625 1.5859375 C3.61160889 1.88588623 4.18806152 2.18583496 4.78198242 2.49487305 C14.08293589 7.42782494 23.11201306 12.88117337 32.17138672 18.23925781 C34.88871213 19.83800459 37.61662426 21.41600058 40.3515625 22.984375 C41.53238403 23.66536255 41.53238403 23.66536255 42.73706055 24.36010742 C44.1874975 25.19596587 45.64064225 26.02714971 47.09692383 26.8527832 C50.24621751 28.67974793 52.04361201 29.87987113 54.09765625 32.9609375 C54.36508179 35.86959839 54.36508179 35.86959839 54.38818359 39.46435547 C54.39490082 40.12000488 54.40161804 40.7756543 54.40853882 41.45117188 C54.42753578 43.6185667 54.43144389 45.7856521 54.43359375 47.953125 C54.44002089 49.46143725 54.44674918 50.96974824 54.45376587 52.47805786 C54.46574312 55.64051198 54.46944628 58.80285683 54.46826172 61.96533203 C54.46805858 66.01298435 54.49535211 70.05993409 54.52980614 74.10741997 C54.5520715 77.22330935 54.55609937 80.3390296 54.55504227 83.45499039 C54.55739911 84.94690496 54.56622748 86.43882412 54.581707 87.93066025 C54.60135978 90.02051347 54.59553368 92.10885154 54.58349609 94.19873047 C54.58634613 95.38659149 54.58919617 96.57445251 54.59213257 97.79830933 C53.9969448 101.60507928 52.75602281 103.22520398 50.09765625 105.9609375 C47.72949219 107.59155273 47.72949219 107.59155273 45.08203125 109.01953125 C44.08905029 109.56383789 43.09606934 110.10814453 42.07299805 110.66894531 C41.00863525 111.23967773 39.94427246 111.81041016 38.84765625 112.3984375 C36.59784667 113.62948097 34.34917932 114.86261383 32.1015625 116.09765625 C30.37123779 117.04584229 30.37123779 117.04584229 28.60595703 118.01318359 C21.90002944 121.71508677 15.31671607 125.63250837 8.71582031 129.51733398 C7.77319336 130.07106689 6.83056641 130.6247998 5.859375 131.1953125 C5.03397217 131.68225586 4.20856934 132.16919922 3.3581543 132.67089844 C-1.02776044 135.17388726 -3.73199609 136.64471898 -8.90234375 135.9609375 C-12.34255708 134.51283683 -15.54019962 132.68746293 -18.77734375 130.8359375 C-19.72826904 130.30403809 -20.67919434 129.77213867 -21.65893555 129.22412109 C-24.74988462 127.4864221 -27.82737701 125.72675058 -30.90234375 123.9609375 C-31.96694824 123.35185547 -33.03155273 122.74277344 -34.12841797 122.11523438 C-61.37231989 106.49096136 -61.37231989 106.49096136 -65.90234375 101.9609375 C-66.17649841 99.13456726 -66.17649841 99.13456726 -66.20874023 95.47924805 C-66.22122551 94.48136261 -66.22122551 94.48136261 -66.23396301 93.46331787 C-66.25811125 91.25803822 -66.26684171 89.05305421 -66.2734375 86.84765625 C-66.28240176 85.31549489 -66.29152357 83.78333445 -66.30079651 82.25117493 C-66.31730324 79.03567374 -66.32498938 75.82027687 -66.32788086 72.60473633 C-66.33325978 68.48854334 -66.37091069 64.37333408 -66.41662502 60.25741863 C-66.44640467 57.09091132 -66.45360463 53.92464031 -66.45460701 50.75800514 C-66.4588093 49.24094968 -66.47124421 47.72389352 -66.49212456 46.20697594 C-66.5190548 44.08085862 -66.51421136 41.95701267 -66.50170898 39.83081055 C-66.50677963 38.62216843 -66.51185028 37.41352631 -66.51707458 36.16825867 C-65.563805 31.19463191 -62.5050829 29.05399148 -58.46484375 26.29858398 C-57.19640625 25.57264038 -57.19640625 25.57264038 -55.90234375 24.83203125 C-54.94247559 24.27749268 -53.98260742 23.7229541 -52.99365234 23.15161133 C-51.46345459 22.28379028 -51.46345459 22.28379028 -49.90234375 21.3984375 C-48.31993896 20.48904419 -48.31993896 20.48904419 -46.70556641 19.5612793 C-44.52090218 18.30718072 -42.33419457 17.05663539 -40.14550781 15.80957031 C-37.04642324 14.04306411 -33.95385834 12.26571389 -30.86328125 10.484375 C-29.00156656 9.41360254 -27.13959946 8.34326877 -25.27734375 7.2734375 C-24.42011719 6.78093506 -23.56289062 6.28843262 -22.6796875 5.78100586 C-21.10767406 4.88322898 -19.53207644 3.99168449 -17.95214844 3.10791016 C-16.20932165 2.13270765 -14.48005781 1.13332943 -12.75390625 0.12890625 C-8.2218582 -1.72737097 -4.59193467 -1.64394969 0 0 Z " fill="#41828D" transform="translate(99.90234375,368.0390625)"/>
<path d="M0 0 C1.98 0.66 3.96 1.32 6 2 C10.87267606 2.40605634 13.0768605 1.6410465 18 0 C18 12.21 18 24.42 18 37 C22.27952637 36.97381592 26.55905273 36.94763184 30.96826172 36.9206543 C45.11762228 36.83775589 59.26699247 36.78230134 73.41653252 36.74093914 C81.99428594 36.71519613 90.57180871 36.68012069 99.14941406 36.62280273 C106.62874516 36.57284773 114.10790916 36.54068063 121.58740246 36.52955753 C125.54503967 36.5230591 129.50219897 36.50786865 133.45968246 36.47134972 C137.19113705 36.43719825 140.92192073 36.42698505 144.65351677 36.43446159 C146.66270927 36.43244828 148.67183011 36.40565393 150.68083191 36.37789917 C159.33090904 36.42675389 166.33500446 37.77744169 172.90717888 43.72629833 C179.41252991 50.46919596 180.44739046 58.21888819 180.29296875 67.1875 C180.28872391 68.13061035 180.28447906 69.0737207 180.28010559 70.04541016 C180.2634357 73.03057518 180.22580575 76.01504218 180.1875 79 C180.17243804 81.03514644 180.15875229 83.07030355 180.14648438 85.10546875 C180.11357055 90.0705777 180.06186999 95.03517087 180 100 C179.071875 99.67515625 178.14375 99.3503125 177.1875 99.015625 C171.46578964 97.19253101 167.55586935 98.05544573 162 100 C161.9906543 98.80922852 161.98130859 97.61845703 161.97167969 96.39160156 C161.93178613 91.97064908 161.86602927 87.55039297 161.79248047 83.12988281 C161.76426714 81.21721344 161.74305439 79.3044274 161.72900391 77.39160156 C161.70757919 74.64066827 161.6609326 71.89113825 161.609375 69.140625 C161.60753204 67.85916595 161.60753204 67.85916595 161.60565186 66.55181885 C161.58593323 65.75129089 161.5662146 64.95076294 161.54589844 64.12597656 C161.53701599 63.42426331 161.52813354 62.72255005 161.51898193 61.99957275 C160.75760697 59.06608983 159.32545712 57.90583934 157 56 C154.28211831 55.39719893 154.28211831 55.39719893 151.24200439 55.48101807 C150.06693832 55.46710526 148.89187225 55.45319244 147.68119812 55.43885803 C146.39582657 55.4438884 145.11045502 55.44891876 143.78613281 55.45410156 C142.41609015 55.44536558 141.04605769 55.4348797 139.67604065 55.42277527 C135.95937282 55.39489712 132.24303761 55.39151096 128.5262804 55.39249516 C124.64112192 55.38936758 120.75611359 55.36375266 116.87103271 55.34051514 C109.51527152 55.29993958 102.15959901 55.27961082 94.80374312 55.26654124 C86.42888127 55.25067643 78.05417045 55.21226304 69.67939615 55.17194796 C52.45295256 55.08952765 35.22660644 55.03842563 18 55 C18 69.85 18 84.7 18 100 C15.03 99.01 15.03 99.01 12 98 C7.12732394 97.59394366 4.9231395 98.3589535 0 100 C0 85.15 0 70.3 0 55 C-18.05442754 55.04027216 -36.10854723 55.0969919 -54.16279984 55.18390274 C-62.54554825 55.2237262 -70.92820233 55.25610183 -79.31103516 55.27099609 C-86.61681985 55.28399554 -93.92239728 55.31091626 -101.22806525 55.35461307 C-105.0970536 55.3772666 -108.96578594 55.39290837 -112.8348465 55.39188385 C-116.47605831 55.39113951 -120.11670341 55.40899815 -123.75776863 55.44116783 C-125.73220514 55.4537577 -127.70673659 55.44658518 -129.68119812 55.43885803 C-130.85626419 55.45277084 -132.03133026 55.46668365 -133.24200439 55.48101807 C-134.26335102 55.48470524 -135.28469765 55.48839241 -136.33699417 55.49219131 C-139.70033338 56.1335466 -140.88996196 57.36013765 -143 60 C-143.60366458 61.9983584 -143.60366458 61.9983584 -143.54589844 64.12597656 C-143.57547638 65.32676849 -143.57547638 65.32676849 -143.60565186 66.55181885 C-143.60749481 67.83327789 -143.60749481 67.83327789 -143.609375 69.140625 C-143.62591125 70.02280701 -143.64244751 70.90498901 -143.65948486 71.81390381 C-143.70799194 74.6260065 -143.72934155 77.43756832 -143.75 80.25 C-143.77815746 82.15888142 -143.80808457 84.06773761 -143.83984375 85.9765625 C-143.91375154 90.65099714 -143.96330955 95.32513106 -144 100 C-144.91652344 99.67515625 -145.83304688 99.3503125 -146.77734375 99.015625 C-152.43750342 97.2318171 -156.63775869 97.69011143 -162 100 C-162.07448767 94.02265102 -162.1287615 88.04557582 -162.16479492 82.06787109 C-162.17982599 80.0368987 -162.20025647 78.00595846 -162.22631836 75.97509766 C-162.26295232 73.04581741 -162.27978351 70.11696856 -162.29296875 67.1875 C-162.31619453 65.83857666 -162.31619453 65.83857666 -162.33988953 64.46240234 C-162.34198724 56.49816738 -160.58008621 49.6063551 -154.90717888 43.72629833 C-147.16593697 36.71925083 -138.75158427 36.2940305 -128.73779297 36.43237305 C-127.32746939 36.43378626 -125.91714214 36.43298621 -124.50682068 36.43016052 C-120.70761836 36.42873557 -116.90921767 36.45797367 -113.11020041 36.49303031 C-109.12910198 36.52444928 -105.14798184 36.52723672 -101.16677856 36.53315735 C-93.64104277 36.54865044 -86.11567347 36.5896168 -78.5900985 36.6399048 C-70.01692567 36.6959402 -61.44373463 36.72332031 -52.87042403 36.74838197 C-35.24669985 36.80053737 -17.62347756 36.89217158 0 37 C0 24.79 0 12.58 0 0 Z " fill="#3FD9B0" transform="translate(247,270)"/>
<path d="M0 0 C0.09275026 8.779674 0.16379012 17.55917892 0.20724869 26.33923626 C0.22810852 30.41635654 0.25639619 34.49314122 0.30175781 38.57006836 C0.34527382 42.50582482 0.36914918 46.44125882 0.37950897 50.37723732 C0.38689011 51.87755216 0.40130403 53.37784969 0.42292023 54.87802696 C0.45203262 56.98246531 0.45595302 59.08557767 0.45410156 61.19018555 C0.46298401 62.38709518 0.47186646 63.58400482 0.48101807 64.81718445 C-0.09858248 68.65230365 -1.31654004 70.25260663 -4 73 C-6.65942383 74.83007812 -6.65942383 74.83007812 -9.70703125 76.53125 C-10.84068115 77.17118896 -11.97433105 77.81112793 -13.14233398 78.47045898 C-14.36554014 79.1473026 -15.58893286 79.82380916 -16.8125 80.5 C-18.06699661 81.20229797 -19.3209793 81.90551468 -20.57446289 82.60961914 C-23.1301516 84.04391482 -25.68871963 85.47288719 -28.24902344 86.89892578 C-31.77996147 88.87033402 -35.28654205 90.88086247 -38.7890625 92.90234375 C-39.82957764 93.50046875 -40.87009277 94.09859375 -41.94213867 94.71484375 C-43.89783151 95.83957834 -45.8512323 96.96831048 -47.80200195 98.1015625 C-48.68073975 98.60300781 -49.55947754 99.10445313 -50.46484375 99.62109375 C-51.224021 100.0586499 -51.98319824 100.49620605 -52.76538086 100.94702148 C-55.17455403 102.08225189 -57.39057243 102.51999029 -60 103 C-60.39540382 94.0471123 -60.69663897 85.09725985 -60.88080692 76.13752174 C-60.96924996 71.97573519 -61.08891453 67.81995039 -61.2824707 63.66162109 C-62.49134243 36.981554 -62.49134243 36.981554 -58.50717163 30.61422729 C-54.68670349 26.95664903 -50.2617631 25.28752532 -45.26907349 23.76086426 C-41.75925957 22.58395572 -38.77528056 20.69984813 -35.63671875 18.76953125 C-34.47334661 18.10020189 -33.30733998 17.43542955 -32.13867188 16.77539062 C-29.23511252 15.12396043 -26.33173093 13.47223056 -23.42971802 11.81808472 C-21.73032248 10.84975443 -20.02996483 9.88311325 -18.32958984 8.91650391 C-16.06870795 7.61514573 -13.81927927 6.29372567 -11.58056641 4.95458984 C-10.5085498 4.31344238 -9.4365332 3.67229492 -8.33203125 3.01171875 C-7.37659424 2.43252686 -6.42115723 1.85333496 -5.43676758 1.2565918 C-3 0 -3 0 0 0 Z " fill="#266677" transform="translate(316,401)"/>
<path d="M0 0 C0.16241044 8.89264238 0.28667806 17.78477202 0.3626852 26.67857552 C0.39917127 30.80871195 0.44863223 34.93783159 0.52807617 39.06738281 C0.60430839 43.05508233 0.64602509 47.04180598 0.6641407 51.03017807 C0.67704463 52.54930864 0.70224511 54.06838757 0.7401104 55.58710098 C1.02296913 67.40543989 1.02296913 67.40543989 -1.39923096 71.18106079 C-3.18602857 72.77268909 -4.88705993 73.8869672 -7 75 C-7.97018066 75.61633301 -8.94036133 76.23266602 -9.93994141 76.86767578 C-10.90077637 77.3882959 -11.86161133 77.90891602 -12.8515625 78.4453125 C-13.94065918 79.0419873 -15.02975586 79.63866211 -16.15185547 80.25341797 C-17.29799316 80.87104004 -18.44413086 81.48866211 -19.625 82.125 C-22.03822418 83.43948296 -24.44866985 84.75902945 -26.859375 86.078125 C-27.4611557 86.40630219 -28.0629364 86.73447937 -28.68295288 87.07260132 C-35.35213087 90.71828949 -41.92249698 94.53600698 -48.46337891 98.40673828 C-49.25663574 98.86806152 -50.04989258 99.32938477 -50.8671875 99.8046875 C-51.54894043 100.20671387 -52.23069336 100.60874023 -52.93310547 101.02294922 C-55.26822319 102.12679296 -57.46879381 102.53137155 -60 103 C-60.5596447 94.117491 -60.98407455 85.24113943 -61.24349213 76.34477043 C-61.36812786 72.21125668 -61.53637937 68.08988807 -61.81054688 63.96337891 C-63.52546956 37.45758234 -63.52546956 37.45758234 -57.78442383 30.19863892 C-52.13249085 25.48913238 -45.76538672 22.69015435 -38.92016602 20.12585449 C-35.15879842 18.6756792 -31.92201159 16.81986715 -28.46875 14.74609375 C-26.48050789 13.64081304 -24.49100658 12.53779311 -22.5 11.4375 C-16.4265491 8.07747298 -10.40250208 4.74202347 -4.63867188 0.86743164 C-3 0 -3 0 0 0 Z " fill="#266677" transform="translate(478,401)"/>
<path d="M0 0 C0.09275026 8.779674 0.16379012 17.55917892 0.20724869 26.33923626 C0.22810852 30.41635654 0.25639619 34.49314122 0.30175781 38.57006836 C0.34527382 42.50582482 0.36914918 46.44125882 0.37950897 50.37723732 C0.38689011 51.87755216 0.40130403 53.37784969 0.42292023 54.87802696 C0.45203262 56.98246531 0.45595302 59.08557767 0.45410156 61.19018555 C0.46298401 62.38709518 0.47186646 63.58400482 0.48101807 64.81718445 C-0.09756462 68.64556864 -1.32599332 70.25450014 -4 73 C-6.36816406 74.63061523 -6.36816406 74.63061523 -9.015625 76.05859375 C-10.00836426 76.60298096 -11.00110352 77.14736816 -12.02392578 77.70825195 C-13.08853027 78.27890381 -14.15313477 78.84955566 -15.25 79.4375 C-17.50391814 80.66686485 -19.75648697 81.89870624 -22.0078125 83.1328125 C-23.1618457 83.76477539 -24.31587891 84.39673828 -25.50488281 85.04785156 C-28.95887183 86.96064138 -32.35351657 88.96573647 -35.7421875 90.9921875 C-36.81436523 91.6322876 -37.88654297 92.2723877 -38.99121094 92.93188477 C-41.03877738 94.16064795 -43.08135216 95.39777816 -45.11816406 96.64428711 C-46.05112305 97.20124268 -46.98408203 97.75819824 -47.9453125 98.33203125 C-48.75500488 98.82421143 -49.56469727 99.3163916 -50.39892578 99.82348633 C-53.57362497 101.25946111 -56.55854172 101.5602394 -60 102 C-60.23200904 93.10758271 -60.40952809 84.21621102 -60.51812172 75.32142448 C-60.57025169 71.1907326 -60.64090466 67.06211497 -60.75439453 62.93261719 C-60.86330055 58.94481291 -60.92288777 54.95899871 -60.94877243 50.96982193 C-60.96720858 49.45052875 -61.00321697 47.93134118 -61.05730057 46.41289902 C-61.21482216 41.80582738 -61.21839692 37.48848496 -60 33 C-57.06778107 29.91804926 -53.91876024 28.53413802 -50 27 C-48.8766626 26.34813721 -47.7533252 25.69627441 -46.59594727 25.0246582 C-45.59619873 24.45577881 -44.5964502 23.88689941 -43.56640625 23.30078125 C-42.43130615 22.65367187 -41.29620605 22.0065625 -40.12670898 21.33984375 C-38.93870232 20.66395176 -37.75063148 19.98817255 -36.5625 19.3125 C-26.278708 13.46392501 -26.278708 13.46392501 -16.0546875 7.51171875 C-15.17997803 6.99762451 -14.30526855 6.48353027 -13.40405273 5.95385742 C-11.79877078 5.00765787 -10.19653877 4.05625832 -8.59790039 3.09887695 C-3.33143707 0 -3.33143707 0 0 0 Z " fill="#266677" transform="translate(154,401)"/>
<path d="M0 0 C0.11594308 8.64924833 0.20473943 17.29822843 0.25906086 25.94808483 C0.28513507 29.96477428 0.32049178 33.98093138 0.37719727 37.99731445 C0.43159709 41.87473581 0.46143691 45.75164575 0.47438622 49.62941933 C0.48361202 51.10743574 0.50162858 52.58542471 0.52865028 54.06322289 C0.56505088 56.13675374 0.56994139 58.20818254 0.56762695 60.28198242 C0.58428154 62.05069954 0.58428154 62.05069954 0.60127258 63.85514832 C-0.34073757 68.7821686 -3.43703782 70.93407357 -7.4375 73.66235352 C-8.283125 74.14631592 -9.12875 74.63027832 -10 75.12890625 C-11.4396814 75.96071411 -11.4396814 75.96071411 -12.90844727 76.80932617 C-13.92865967 77.38787354 -14.94887207 77.9664209 -16 78.5625 C-17.05566162 79.16876221 -18.11132324 79.77502441 -19.19897461 80.3996582 C-21.38447366 81.6535795 -23.5719118 82.90412684 -25.76123047 84.15136719 C-28.84945513 85.91407163 -31.92811722 87.69226782 -35.00390625 89.4765625 C-36.85655565 90.54724742 -38.70941036 91.6175772 -40.5625 92.6875 C-41.41134766 93.18000244 -42.26019531 93.67250488 -43.13476562 94.17993164 C-55.02898395 101 -55.02898395 101 -60 101 C-60.20881011 92.10749884 -60.3685793 83.21584485 -60.46630955 74.32142448 C-60.51322417 70.19093949 -60.5768137 66.06213489 -60.67895508 61.93261719 C-60.77696954 57.94485189 -60.83060074 53.95869899 -60.85389519 49.96982193 C-60.87048706 48.45058933 -60.90289203 46.9314422 -60.95157051 45.41289902 C-61.31657402 33.55140441 -61.31657402 33.55140441 -58.14907837 29.81893921 C-55.82896928 28.23941676 -53.57890963 27.09719658 -51 26 C-49.95489258 25.38366699 -48.90978516 24.76733398 -47.83300781 24.13232422 C-46.88264648 23.6117041 -45.93228516 23.09108398 -44.953125 22.5546875 C-43.8703125 21.95785156 -42.7875 21.36101562 -41.671875 20.74609375 C-39.97804688 19.81990234 -39.97804688 19.81990234 -38.25 18.875 C-35.85809089 17.56222207 -33.46770088 16.24670728 -31.078125 14.9296875 C-30.48294067 14.60192322 -29.88775635 14.27415894 -29.27453613 13.9364624 C-25.37612827 11.78207911 -21.51515769 9.57137808 -17.671875 7.3203125 C-16.70991211 6.75844238 -15.74794922 6.19657227 -14.75683594 5.61767578 C-12.95309869 4.55926602 -11.15404054 3.49283118 -9.36035156 2.41748047 C-8.56081055 1.94971191 -7.76126953 1.48194336 -6.9375 1 C-6.24527344 0.5875 -5.55304688 0.175 -4.83984375 -0.25 C-3 -1 -3 -1 0 0 Z " fill="#266677" transform="translate(316,172)"/>
<path d="M0 0 C1.200201 0.59848527 2.39245499 1.21306334 3.578125 1.83984375 C4.24497314 2.18273437 4.91182129 2.525625 5.59887695 2.87890625 C16.88750949 8.78669487 27.84922176 15.31916537 38.828125 21.77734375 C39.62702148 22.24333984 40.42591797 22.70933594 41.24902344 23.18945312 C43.13585665 24.29193161 45.0151776 25.40564236 46.890625 26.52734375 C47.85097656 27.0996875 48.81132812 27.67203125 49.80078125 28.26171875 C51.828125 29.77734375 51.828125 29.77734375 52.828125 32.77734375 C51.11458333 33.75651042 49.40104167 34.73567708 47.6875 35.71484375 C46.56666016 36.35542725 45.44582031 36.99601074 44.29101562 37.65600586 C41.79539462 39.08212844 39.29924443 40.50731913 36.80273438 41.93188477 C30.80683697 45.3542778 24.81379006 48.78118644 18.83575439 52.23471069 C16.28190245 53.70974403 13.72604808 55.18128791 11.17004395 56.65258789 C9.94597219 57.35852417 8.72290012 58.06619683 7.50085449 58.77563477 C5.78956885 59.76887634 4.07454899 60.75567568 2.359375 61.7421875 C1.38548828 62.30542725 0.41160156 62.86866699 -0.59179688 63.44897461 C-4.73673111 65.58301957 -4.73673111 65.58301957 -7.171875 65.77734375 C-9.43237305 64.82788086 -9.43237305 64.82788086 -11.93359375 63.3046875 C-13.34705078 62.45958618 -13.34705078 62.45958618 -14.7890625 61.59741211 C-15.80226563 60.97616455 -16.81546875 60.35491699 -17.859375 59.71484375 C-20.01823766 58.42101617 -22.17843894 57.12942006 -24.33984375 55.83984375 C-25.4592334 55.16953125 -26.57862305 54.49921875 -27.73193359 53.80859375 C-34.3457183 49.90322194 -41.07585178 46.20495242 -47.7956543 42.48608398 C-53.35875183 39.39516937 -58.80945881 36.20545981 -64.171875 32.77734375 C-63.97143555 30.96459961 -63.97143555 30.96459961 -63.171875 28.77734375 C-61.11254883 27.24438477 -61.11254883 27.24438477 -58.37890625 25.78125 C-57.36618652 25.22864502 -56.3534668 24.67604004 -55.31005859 24.10668945 C-54.21258301 23.52363037 -53.11510742 22.94057129 -51.984375 22.33984375 C-49.70048372 21.0975109 -47.41795819 19.85266437 -45.13671875 18.60546875 C-44.5563385 18.28975418 -43.97595825 17.97403961 -43.37799072 17.64875793 C-36.58638492 13.94142051 -29.96153538 9.95914113 -23.34301758 5.95336914 C-8.16588522 -3.14768728 -8.16588522 -3.14768728 0 0 Z " fill="#347584" transform="translate(424.171875,368.22265625)"/>
<path d="M0 0 C1.2183934 0.60767074 2.42891367 1.23128357 3.6328125 1.8671875 C4.30554199 2.21265625 4.97827148 2.558125 5.67138672 2.9140625 C14.30425607 7.42918563 22.67301198 12.43026041 31.0546875 17.390625 C34.45723159 19.40265223 37.87029015 21.37997902 41.3359375 23.28125 C41.99062012 23.6421875 42.64530273 24.003125 43.31982422 24.375 C44.99017848 25.2891287 46.66669393 26.19197532 48.34375 27.09375 C50.92640867 28.85731304 51.51504325 29.96578811 52.7578125 32.7421875 C52.12617188 33.09297363 51.49453125 33.44375977 50.84375 33.80517578 C37.754502 41.08300513 24.72784934 48.44414626 11.81640625 56.03369141 C9.99030511 57.10643058 8.16103193 58.17379453 6.328125 59.23486328 C4.61906861 60.23711576 2.92583696 61.2668699 1.25 62.32373047 C0.46882813 62.80084473 -0.31234375 63.27795898 -1.1171875 63.76953125 C-1.79523438 64.1987085 -2.47328125 64.62788574 -3.171875 65.07006836 C-6.14896563 66.0365696 -7.49408927 65.13260526 -10.2421875 63.7421875 C-11.96152794 62.84843493 -13.66527792 61.92428617 -15.35546875 60.9765625 C-16.34506592 60.42266846 -17.33466309 59.86877441 -18.35424805 59.2980957 C-19.41039307 58.702146 -20.46653809 58.10619629 -21.5546875 57.4921875 C-22.64885986 56.87754639 -23.74303223 56.26290527 -24.87036133 55.62963867 C-33.78471435 50.60490673 -42.63407316 45.47252978 -51.44848633 40.27441406 C-55.98265717 37.60674973 -60.49020995 35.00237178 -65.2421875 32.7421875 C-63.73856142 28.60139766 -61.35973462 27.33506253 -57.58984375 25.23828125 C-57.02218292 24.91829163 -56.45452209 24.598302 -55.86965942 24.26861572 C-54.02014387 23.22883066 -52.16265559 22.20427925 -50.3046875 21.1796875 C-49.02908001 20.46636497 -47.75409881 19.75192135 -46.47973633 19.03637695 C-44.56029977 17.95904177 -42.6403785 16.88267503 -40.71800232 15.81059265 C-34.48836342 12.33565071 -28.33096617 8.7404678 -22.19360352 5.10522461 C-8.09835165 -3.14177016 -8.09835165 -3.14177016 0 0 Z " fill="#347584" transform="translate(262.2421875,368.2578125)"/>
<path d="M0 0 C1.50240234 0.78503906 1.50240234 0.78503906 3.03515625 1.5859375 C3.61160889 1.88588623 4.18806152 2.18583496 4.78198242 2.49487305 C14.08195314 7.42730371 23.10898032 12.88111998 32.16699219 18.23925781 C34.89541561 19.84212702 37.63663446 21.41903919 40.38671875 22.984375 C41.17844482 23.4383667 41.9701709 23.8923584 42.78588867 24.36010742 C44.24834134 25.19776755 45.71448333 26.0290304 47.18481445 26.8527832 C51.98519666 29.62355874 51.98519666 29.62355874 53.09765625 32.9609375 C52.46601563 33.31172363 51.834375 33.66250977 51.18359375 34.02392578 C38.09434575 41.30175513 25.06769309 48.66289626 12.15625 56.25244141 C10.33014886 57.32518058 8.50087568 58.39254453 6.66796875 59.45361328 C4.95891236 60.45586576 3.26568071 61.4856199 1.58984375 62.54248047 C0.80867188 63.01959473 0.0275 63.49670898 -0.77734375 63.98828125 C-1.45539063 64.4174585 -2.1334375 64.84663574 -2.83203125 65.28881836 C-5.8162873 66.25764582 -7.14367676 65.35652905 -9.90234375 63.9609375 C-11.76732446 62.99402435 -13.61661577 61.99651737 -15.453125 60.9765625 C-16.53327881 60.37755127 -17.61343262 59.77854004 -18.72631836 59.16137695 C-19.87753174 58.51773193 -21.02874512 57.87408691 -22.21484375 57.2109375 C-22.80427765 56.88201508 -23.39371155 56.55309265 -24.00100708 56.21420288 C-32.814687 51.29380255 -41.59800854 46.32046507 -50.33984375 41.2734375 C-51.3450708 40.69819336 -52.35029785 40.12294922 -53.38598633 39.53027344 C-54.31822021 38.98790039 -55.2504541 38.44552734 -56.2109375 37.88671875 C-57.02361084 37.41661377 -57.83628418 36.94650879 -58.67358398 36.4621582 C-61.05987554 34.85482917 -62.93645087 33.05393431 -64.90234375 30.9609375 C-57.56412706 25.84774059 -49.8698691 21.41741313 -42.08984375 17.0234375 C-40.28326703 15.99941077 -38.47724302 14.97441649 -36.67141724 13.94906616 C-35.48363841 13.27471 -34.29555058 12.60089778 -33.10714722 11.92764282 C-28.24615565 9.16961846 -23.42425449 6.34796919 -18.61450195 3.50170898 C-12.126975 -0.1838417 -7.44889413 -2.66676425 0 0 Z " fill="#347584" transform="translate(99.90234375,368.0390625)"/>
<path d="M0 0 C2.77880859 1.26831055 2.77880859 1.26831055 5.6484375 2.88671875 C7.26383423 3.79006958 7.26383423 3.79006958 8.91186523 4.71166992 C10.62611694 5.68970581 10.62611694 5.68970581 12.375 6.6875 C13.56880379 7.36159429 14.76289967 8.03517153 15.95727539 8.70825195 C19.03542038 10.44711922 22.10595455 12.19897186 25.17401123 13.95556641 C26.96223876 14.97840123 28.75252529 15.99753392 30.54345703 17.015625 C33.84683379 18.89708691 37.14364405 20.78942758 40.4375 22.6875 C41.44280762 23.26266357 42.44811523 23.83782715 43.48388672 24.43041992 C44.41604004 24.97287354 45.34819336 25.51532715 46.30859375 26.07421875 C47.12126709 26.54432373 47.93394043 27.01442871 48.77124023 27.4987793 C51.15753179 29.10610833 53.03410712 30.90700319 55 33 C52.12151992 35.25469828 49.18486626 37.09864299 45.984375 38.86328125 C44.99155518 39.41395264 43.99873535 39.96462402 42.97583008 40.53198242 C41.91130615 41.11955322 40.84678223 41.70712402 39.75 42.3125 C29.68596914 47.90133227 19.70980782 53.61907021 9.79394531 59.46801758 C8.85776367 60.01868896 7.92158203 60.56936035 6.95703125 61.13671875 C6.14210205 61.61842529 5.32717285 62.10013184 4.48754883 62.59643555 C3.66665771 63.05961182 2.8457666 63.52278809 2 64 C1.02804687 64.61004883 0.05609375 65.22009766 -0.9453125 65.84863281 C-4 67 -4 67 -6.85473633 66.09399414 C-7.83724365 65.49707764 -8.81975098 64.90016113 -9.83203125 64.28515625 C-10.94892334 63.62475342 -12.06581543 62.96435059 -13.21655273 62.28393555 C-14.41534755 61.54369298 -15.6139933 60.80320895 -16.8125 60.0625 C-18.05060195 59.3213577 -19.29028999 58.58285903 -20.53149414 57.84692383 C-23.0884056 56.32933894 -25.63902583 54.80188129 -28.18652344 53.26855469 C-34.02714448 49.77221194 -39.98390259 46.48669488 -45.9375 43.1875 C-47.96805243 42.05707478 -49.99804533 40.92564359 -52.02734375 39.79296875 C-52.87031006 39.3239917 -53.71327637 38.85501465 -54.58178711 38.37182617 C-55.37979736 37.91912354 -56.17780762 37.4664209 -57 37 C-57.92756104 36.50927002 -58.85512207 36.01854004 -59.81079102 35.51293945 C-60.53322998 35.01366943 -61.25566895 34.51439941 -62 34 C-62 33.01 -62 32.02 -62 31 C-59.77834093 29.44166485 -57.61514523 28.12508232 -55.25 26.8125 C-54.51571777 26.39323242 -53.78143555 25.97396484 -53.02490234 25.54199219 C-51.33467605 24.57819198 -49.64156992 23.61943222 -47.94628906 22.66455078 C-44.62960488 20.79073965 -41.32581087 18.8949529 -38.0234375 16.99609375 C-25.53004985 9.82086251 -25.53004985 9.82086251 -20.23535156 6.83789062 C-18.11347193 5.63252465 -16.005255 4.40271243 -13.91308594 3.14648438 C-12.95950195 2.58767578 -12.00591797 2.02886719 -11.0234375 1.453125 C-10.19505371 0.95458008 -9.36666992 0.45603516 -8.51318359 -0.05761719 C-5.21331971 -1.294986 -3.37963704 -0.92717388 0 0 Z " fill="#347584" transform="translate(260,137)"/>
</svg>
