<svg width="100" height="100" viewBox="0 0 100 100" fill="none" xmlns="http://www.w3.org/2000/svg">
<path d="M98.4716 59.9022C97.8902 58.1365 96.3673 56.9067 94.3978 56.6116C93.4691 56.4726 92.4055 56.5319 91.1469 56.792C88.9532 57.2459 87.3257 57.4187 86.138 57.4521C90.6212 49.8619 94.2667 41.2063 96.3654 33.0585C99.759 19.8837 97.9455 13.8818 95.8264 11.167C90.2183 3.98123 82.0361 0.120977 72.1652 0.00285975C66.8994 -0.0617057 62.2768 0.980837 59.8653 1.73056C57.62 1.33329 55.2059 1.11149 52.6728 1.07047C47.9244 0.99451 43.729 2.0325 40.1442 4.16582C38.1595 3.49281 34.9742 2.54408 31.2958 1.93869C22.6444 0.514446 15.6716 1.62421 10.5714 5.23722C4.3955 9.61172 1.53253 17.2122 2.06202 27.8276C2.23018 31.1979 4.1103 41.4524 7.0706 51.1775C8.77195 56.7673 10.5862 61.4092 12.4629 64.9755C15.1243 70.0325 17.9722 73.0105 21.1692 74.08C22.961 74.6786 26.2168 75.0978 29.6411 72.238C30.0751 72.7651 30.6542 73.2889 31.4227 73.7754C32.3987 74.3926 33.5922 74.8969 34.7841 75.1958C39.0795 76.2726 43.1029 76.0033 46.5356 74.494C46.5568 75.1062 46.573 75.6911 46.5867 76.1962C46.6094 77.0154 46.6321 77.8187 46.6621 78.57C46.8654 83.6494 47.2101 87.5989 48.2312 90.3623C48.2873 90.5142 48.3626 90.7459 48.4422 90.9916C48.9516 92.5556 49.8034 95.1739 51.9706 97.2244C54.2147 99.3487 56.9292 100 59.4153 100C60.6622 100 61.8518 99.8359 62.8953 99.6118C66.6146 98.8124 70.8388 97.5947 73.8945 93.2316C76.7836 89.107 78.188 82.8947 78.4422 73.1062C78.4751 72.8293 78.5054 72.565 78.5346 72.3132L78.5952 71.7959L79.2758 71.8559L79.4512 71.8677C83.2394 72.0409 87.8715 71.2353 90.7163 69.9102C92.9642 68.8642 100.168 65.0507 98.4716 59.9022Z" fill="black"/>
<path d="M91.9943 60.9033C80.7303 63.2333 79.9558 59.4092 79.9558 59.4092C91.8485 41.7133 96.8204 19.2509 92.5303 13.7533C80.8254 -1.24298 60.5641 5.84936 60.2259 6.03318L60.1172 6.05293C57.8917 5.58958 55.4014 5.31385 52.6021 5.26789C47.5056 5.18434 43.6393 6.60782 40.7055 8.83875C40.7055 8.83875 4.56141 -6.09261 6.24268 27.6175C6.60022 34.7888 16.4932 81.8803 28.2927 67.6565C32.6056 62.4551 36.773 58.0575 36.773 58.0575C38.8424 59.4361 41.3202 60.1395 43.9177 59.887L44.1196 59.7153C44.0567 60.3609 44.0855 60.9925 44.2002 61.7404C41.1604 65.146 42.0539 65.7438 35.9772 66.9983C29.8282 68.2691 33.4403 70.5312 35.7988 71.1229C38.658 71.8396 45.2725 72.8551 49.7417 66.5813L49.5637 67.2972C50.7545 68.2539 51.5908 73.5194 51.4507 78.2931C51.3105 83.0664 51.217 86.3436 52.1551 88.9035C53.0941 91.4633 54.0292 97.2229 62.0178 95.5066C68.6925 94.0721 72.1516 90.3551 72.633 84.1545C72.9743 79.7466 73.7473 80.3983 73.7958 76.4571L74.4158 74.5916C75.1305 68.6162 74.5294 66.6884 78.6415 67.5851L79.6414 67.6732C82.6676 67.811 86.6293 67.1848 88.9545 66.1012C93.9608 63.7715 96.9302 59.8813 91.9936 60.9033H91.9943Z" fill="#336791"/>
<path d="M42.8211 30.8245C41.806 30.6828 40.8868 30.8138 40.4217 31.167C40.1604 31.3657 40.0793 31.5958 40.0574 31.7542C39.999 32.1739 40.2922 32.638 40.4725 32.8772C40.9823 33.5548 41.7269 34.0204 42.4639 34.123C42.5707 34.1382 42.6772 34.145 42.7828 34.145C44.0119 34.145 45.1296 33.1853 45.228 32.4769C45.3511 31.5897 44.0668 30.9984 42.8211 30.8248V30.8245ZM76.448 30.8526C76.3511 30.1572 75.1171 29.9589 73.946 30.1222C72.7764 30.2855 71.6425 30.815 71.7371 31.5119C71.8129 32.0538 72.7889 32.979 73.9441 32.979C74.0418 32.979 74.1403 32.9726 74.2395 32.9585C75.0107 32.8514 75.5765 32.3603 75.8454 32.0774C76.2545 31.6459 76.4916 31.1651 76.448 30.8526Z" fill="white"/>
<path d="M95.7427 60.6388C95.3132 59.3365 93.9307 58.9176 91.634 59.3931C84.8146 60.8044 82.3724 59.8268 81.5706 59.2347C86.8712 51.1374 91.2318 41.3493 93.5842 32.217C94.6985 27.8911 95.3139 23.8736 95.3643 20.599C95.42 17.005 94.8094 14.3639 93.5505 12.7505C88.4744 6.24643 81.0244 2.75761 72.0064 2.6619C65.8066 2.59202 60.5685 4.18299 59.5531 4.63039C57.4146 4.09716 55.0834 3.76977 52.5454 3.72799C47.8913 3.65241 43.8682 4.76978 40.5375 7.04743C39.0907 6.50735 35.3517 5.22022 30.779 4.48151C22.8737 3.20539 16.5918 4.17236 12.1089 7.35696C6.7598 11.1572 4.29034 17.9503 4.76871 27.547C4.92967 30.7757 6.76434 40.7082 9.65951 50.2202C13.4705 62.7399 17.6133 69.8273 21.9719 71.2853C22.4821 71.4558 23.0703 71.5751 23.7191 71.5751C25.3091 71.5751 27.2585 70.8565 29.2867 68.4114C31.7606 65.4355 34.3196 62.5319 36.9606 59.7041C38.6741 60.6263 40.5565 61.1413 42.4816 61.1929C42.4854 61.2434 42.4904 61.294 42.4949 61.3441C42.1635 61.7404 41.839 62.1424 41.5215 62.55C40.1876 64.248 39.9099 64.6016 35.616 65.4881C34.3946 65.741 31.1506 66.4114 31.1028 68.6917C31.0513 71.1831 34.9377 72.2295 35.3805 72.3404C36.9235 72.7278 38.4101 72.9188 39.8277 72.9188C43.2755 72.9188 46.3097 71.7825 48.7344 69.5838C48.6598 78.4658 49.0291 87.2178 50.0926 89.8844C50.9638 92.0675 53.0916 97.4025 59.8129 97.4021C60.7992 97.4021 61.8847 97.287 63.0789 97.0303C70.0937 95.5225 73.14 92.4135 74.3183 85.5592C74.9489 81.8961 76.031 73.149 76.54 68.4569C77.6142 68.7931 78.997 68.9469 80.4919 68.9465C83.6098 68.9465 87.2075 68.2822 89.4637 67.2321C91.9983 66.0517 96.5721 63.1553 95.7427 60.6388ZM79.0375 28.9333C79.0144 30.3184 78.8243 31.5759 78.6228 32.8885C78.4057 34.3002 78.1815 35.7598 78.1251 37.5315C78.0694 39.2558 78.2842 41.0485 78.4917 42.7822C78.9114 46.284 79.342 49.889 77.6751 53.4462C77.3982 52.9542 77.1516 52.4457 76.9366 51.9236C76.7294 51.42 76.2794 50.611 75.6564 49.4914C73.2328 45.1328 67.5572 34.9261 70.4626 30.7612C71.328 29.5216 73.5244 28.247 79.0375 28.9333ZM72.3548 5.46671C80.4351 5.64559 86.8269 8.67676 91.3522 14.4755C94.8231 18.9233 91.0011 39.1616 79.9367 56.6213C79.8254 56.4794 79.7135 56.338 79.6011 56.1971L79.4609 56.0216C82.3201 51.2867 81.7611 46.6019 81.2634 42.4484C81.0589 40.7439 80.8657 39.1339 80.915 37.6215C80.9657 36.0188 81.1771 34.6439 81.3816 33.3146C81.6327 31.6766 81.8884 29.9815 81.8179 27.9834C81.8706 27.7738 81.8918 27.5261 81.8641 27.2322C81.6842 25.3161 79.5026 19.5815 75.0561 14.3912C72.6237 11.5522 69.0767 8.3752 64.2337 6.23238C66.3168 5.79941 69.1654 5.39569 72.3548 5.46671ZM27.1404 66.6218C24.9057 69.316 23.3627 68.7995 22.8552 68.6301C19.5487 67.5242 15.7119 60.5161 12.3293 49.4032C9.40234 39.7875 7.6919 30.1182 7.55631 27.4069C7.12908 18.8318 9.20198 12.8557 13.7178 9.6441C21.0671 4.41809 33.15 7.5461 38.0052 9.13252C37.9355 9.20164 37.8628 9.26621 37.7939 9.33647C29.8265 17.4049 30.0155 31.19 30.0351 32.0328C30.0344 32.3579 30.0617 32.8182 30.0988 33.4514C30.2359 35.77 30.4912 40.0853 29.8094 44.9721C29.1761 49.5134 30.5722 53.9582 33.639 57.1671C33.9537 57.4958 34.2845 57.8086 34.6301 58.1044C33.2651 59.5704 30.2984 62.8124 27.1404 66.6218ZM35.6543 55.2305C33.1826 52.6441 32.0599 49.0466 32.5739 45.3595C33.2935 40.1973 33.028 35.7013 32.8852 33.2858C32.8652 32.9477 32.8474 32.6515 32.8371 32.4179C34.001 31.383 39.3948 28.4851 43.2414 29.3689C44.9965 29.7719 46.0661 30.9705 46.5108 33.0321C48.8121 43.7055 46.8153 48.1541 45.2109 51.7291C44.8803 52.4656 44.5678 53.1617 44.3012 53.8818L44.0944 54.4386C43.5709 55.8461 43.0839 57.1549 42.782 58.3976C40.1542 58.39 37.598 57.2643 35.6543 55.2301V55.2305ZM36.0577 69.6248C35.2903 69.4326 34.6002 69.0988 34.1953 68.8219C34.5336 68.6624 35.1354 68.4452 36.1792 68.2294C41.2306 67.1869 42.0109 66.4509 43.7145 64.2818C44.105 63.7843 44.5477 63.2207 45.1609 62.534L45.1617 62.5332C46.0748 61.5078 46.4926 61.6817 47.2501 61.997C47.8641 62.2514 48.4621 63.0232 48.7045 63.8724C48.8193 64.2735 48.9481 65.0346 48.5265 65.6271C44.9678 70.6237 39.7819 70.5595 36.0577 69.6248ZM62.4941 94.2935C56.3144 95.6212 54.1263 92.4594 52.6844 88.8449C51.7538 86.5114 51.2963 75.9887 51.6209 64.368C51.6251 64.2135 51.6031 64.0642 51.5607 63.9237C51.5227 63.6462 51.465 63.3718 51.388 63.1026C50.9054 61.4117 49.7294 59.9973 48.3186 59.4109C47.758 59.1781 46.7293 58.7508 45.4931 59.068C45.7567 57.9787 46.2139 56.7485 46.7096 55.4166L46.9176 54.8564C47.1516 54.2248 47.4455 53.5704 47.7561 52.8776C49.4351 49.1374 51.7345 44.0143 49.2389 32.4407C48.3042 28.1057 45.1825 25.9887 40.4504 26.4805C37.6136 26.7749 35.018 27.9226 33.7234 28.5808C33.445 28.7221 33.1905 28.8588 32.9527 28.9918C33.314 24.6241 34.679 16.4615 39.7853 11.297C43.0005 8.04591 47.2823 6.44013 52.4992 6.52672C62.7785 6.69535 69.3703 11.9852 73.0904 16.3935C76.2961 20.1919 78.0319 24.0183 78.7247 26.0821C73.5149 25.5508 69.9717 26.582 68.1757 29.157C64.2681 34.7582 70.3134 45.6296 73.2188 50.8545C73.7517 51.8119 74.2115 52.6395 74.3561 52.9912C75.3023 55.2905 76.5271 56.8256 77.4214 57.946C77.6956 58.2894 77.9615 58.6225 78.1637 58.9134C76.5859 59.3695 73.7517 60.4235 74.01 65.6916C73.8017 68.335 72.3204 80.7111 71.5678 85.0837C70.5743 90.8605 68.4545 93.012 62.4941 94.2938V94.2935ZM88.2885 64.6935C86.675 65.4444 83.9749 66.0076 81.41 66.1288C78.5769 66.2617 77.1347 65.8105 76.7953 65.5329C76.6362 62.2499 77.8547 61.907 79.1443 61.5439C79.3469 61.4869 79.5446 61.4311 79.7355 61.3642C79.8541 61.4611 79.984 61.5572 80.1264 61.6513C82.4035 63.1584 86.4648 63.3209 92.1987 62.1341L92.2616 62.1215C91.4882 62.8466 90.1648 63.8196 88.2885 64.6935Z" fill="white"/>
</svg>
