<svg width="100" height="100" viewBox="0 0 100 100" fill="none" xmlns="http://www.w3.org/2000/svg">
<path d="M49.8067 58.8163C54.6757 58.8163 58.6229 54.8691 58.6229 50.0001C58.6229 45.131 54.6757 41.1838 49.8067 41.1838C44.9376 41.1838 40.9904 45.131 40.9904 50.0001C40.9904 54.8691 44.9376 58.8163 49.8067 58.8163Z" fill="#61DAFB"/>
<path d="M49.8066 68.0626C75.9333 68.0626 97.1132 59.9757 97.1132 50C97.1132 40.0244 75.9333 31.9375 49.8066 31.9375C23.6799 31.9375 2.5 40.0244 2.5 50C2.5 59.9757 23.6799 68.0626 49.8066 68.0626Z" stroke="#61DAFB" stroke-width="5"/>
<path d="M34.164 59.0313C47.2273 81.6577 64.8207 95.9566 73.4599 90.9687C82.0991 85.9809 78.5125 63.5951 65.4492 40.9687C52.3858 18.3423 34.7924 4.04343 26.1533 9.03126C17.5141 14.0191 21.1006 36.4049 34.164 59.0313Z" stroke="#61DAFB" stroke-width="5"/>
<path d="M34.164 40.9687C21.1006 63.5951 17.5141 85.9809 26.1533 90.9687C34.7925 95.9565 52.3858 81.6576 65.4492 59.0312C78.5126 36.4048 82.0991 14.0191 73.4599 9.03124C64.8207 4.04341 47.2273 18.3423 34.164 40.9687Z" stroke="#61DAFB" stroke-width="5"/>
</svg>
