<svg width="100" height="100" viewBox="0 0 100 100" fill="none" xmlns="http://www.w3.org/2000/svg">
<g clip-path="url(#clip0_867_14188)">
<path d="M96.082 72.7651C90.7453 75.5467 63.1 86.9135 57.2145 89.9819C51.3289 93.0507 48.0594 93.021 43.4098 90.7983C38.7605 88.5757 9.34102 76.6921 4.04141 74.1589C1.39297 72.8932 0 71.8245 0 70.8151V60.7073C0 60.7073 38.3008 52.3694 44.484 50.151C50.6668 47.9327 52.8121 47.8526 58.0738 49.7799C63.3363 51.7081 94.7996 57.3846 100 59.2893L99.9977 69.2542C99.9984 70.2534 98.7984 71.3495 96.082 72.7651Z" fill="#912626"/>
<path d="M96.0801 62.7173C90.7438 65.4978 63.0993 76.865 57.2137 79.9329C51.3285 83.0021 48.059 82.972 43.4098 80.7493C38.7602 78.5282 9.34183 66.6427 4.04261 64.1111C-1.25661 61.5779 -1.36754 59.8345 3.83792 57.7962C9.04339 55.7572 38.3004 44.2787 44.4844 42.0603C50.6672 39.8427 52.8121 39.7619 58.0739 41.69C63.336 43.6173 90.8157 54.5552 96.0153 56.4595C101.217 58.3662 101.416 59.9361 96.0801 62.7173Z" fill="#C6302B"/>
<path d="M96.082 56.4101C90.7453 59.1922 63.1 70.5586 57.2145 73.6281C51.3289 76.6957 48.0594 76.666 43.4098 74.4433C38.7602 72.2218 9.34102 60.3371 4.04141 57.8039C1.39297 56.5383 0 55.4711 0 54.4613V44.3523C0 44.3523 38.3008 36.0148 44.484 33.7965C50.6668 31.5781 52.8121 31.4976 58.0738 33.4254C63.3367 35.3531 94.8 41.0285 100 42.9336L99.9977 52.8996C99.9984 53.8984 98.7984 54.9945 96.082 56.4101Z" fill="#912626"/>
<path d="M96.0801 46.3622C90.7438 49.1434 63.0993 60.5098 57.2137 63.579C51.3285 66.6469 48.059 66.6169 43.4098 64.3942C38.7602 62.1731 9.34183 50.288 4.04261 47.7559C-1.25661 45.2235 -1.36754 43.4798 3.83792 41.4407C9.04339 39.4028 38.3008 27.9235 44.4844 25.7055C50.6672 23.4876 52.8121 23.4071 58.0739 25.3348C63.336 27.2622 90.8157 38.1993 96.0153 40.1044C101.217 42.0106 101.416 43.5809 96.0801 46.3622Z" fill="#C6302B"/>
<path d="M96.082 39.4487C90.7453 42.2299 63.1 53.5971 57.2145 56.6667C51.3289 59.7346 48.0594 59.7046 43.4098 57.4819C38.7602 55.2604 9.34102 43.3752 4.04141 40.8432C1.39297 39.5764 0 38.5088 0 37.5002V27.3908C0 27.3908 38.3008 19.0537 44.484 16.8358C50.6668 14.617 52.8121 14.5373 58.0738 16.4647C63.3367 18.3924 94.8 24.0678 100 25.9729L99.9977 35.9385C99.9984 36.9366 98.7984 38.0327 96.082 39.4487Z" fill="#912626"/>
<path d="M96.08 29.4008C90.7437 32.182 63.0992 43.5492 57.2136 46.6172C51.3285 49.6852 48.0589 49.6551 43.4097 47.4336C38.7605 45.211 9.34176 33.3266 4.04293 30.7941C-1.25668 28.2621 -1.36723 26.518 3.83785 24.4793C9.04332 22.441 38.3007 10.9633 44.4843 8.74452C50.6671 6.52616 52.8121 6.44648 58.0738 8.37421C63.3359 10.3019 90.8156 21.2391 96.0152 23.1441C101.217 25.0488 101.416 26.6195 96.08 29.4008Z" fill="#C6302B"/>
<path d="M62.22 19.5674L53.6223 20.4599L51.6977 25.0912L48.5891 19.9232L38.6613 19.031L46.0692 16.3596L43.8465 12.2588L50.7821 14.9713L57.3204 12.8307L55.5532 17.0709L62.22 19.5674ZM51.1844 42.0353L35.1387 35.3802L58.1309 31.8509L51.1844 42.0353ZM28.9383 22.1416C35.7254 22.1416 41.2273 24.2744 41.2273 26.9049C41.2273 29.5361 35.7254 31.6685 28.9383 31.6685C22.1511 31.6685 16.6492 29.5357 16.6492 26.9049C16.6492 24.2744 22.1511 22.1416 28.9383 22.1416Z" fill="white"/>
<path d="M72.3809 20.8334L85.9887 26.2108L72.3926 31.583L72.3809 20.833" fill="#621B1C"/>
<path d="M57.3262 26.7886L72.3809 20.8335L72.3926 31.5832L70.9164 32.1605L57.3262 26.7886Z" fill="#9A2928"/>
</g>
<defs>
<clipPath id="clip0_867_14188">
<rect width="100" height="100" fill="white"/>
</clipPath>
</defs>
</svg>
