<svg width="100" height="100" viewBox="0 0 100 100" fill="none" xmlns="http://www.w3.org/2000/svg">
<path d="M86.1078 56.1111C82.6191 56.1294 79.5871 56.9696 77.0482 58.2117C76.1167 56.3669 75.1851 54.723 75.0207 53.5174C74.8381 52.111 74.6189 51.2525 74.8381 49.5721C75.0573 47.8917 76.0436 45.4989 76.0253 45.3163C76.0071 45.1336 75.8061 44.2752 73.797 44.2569C71.7878 44.2386 70.0526 44.6405 69.8516 45.1702C69.6507 45.6999 69.2671 46.9054 69.0114 48.1474C68.6644 49.974 64.993 56.4947 62.8925 59.9103C62.2167 58.577 61.6322 57.408 61.5043 56.4764C61.3217 55.07 61.1025 54.2115 61.3217 52.5311C61.5409 50.8507 62.5272 48.4579 62.5089 48.2753C62.4907 48.0926 62.2898 47.2342 60.2806 47.2159C58.2714 47.1976 56.5362 47.5995 56.3352 48.1292C56.1343 48.6589 55.9151 49.9009 55.495 51.1064C55.0749 52.3119 50.1981 63.1981 48.9195 66.011C48.2619 67.4539 47.6957 68.6047 47.2939 69.3901C47.2939 69.3901 47.2756 69.4449 47.2208 69.5362C46.8738 70.212 46.6729 70.5773 46.6729 70.5773C46.6729 70.5773 46.6729 70.5773 46.6729 70.5956C46.3989 71.0887 46.1066 71.5454 45.9605 71.5454C45.8509 71.5454 45.65 70.2303 45.997 68.4403C46.7276 64.6593 48.4629 58.7779 48.4446 58.577C48.4446 58.4674 48.7734 57.4445 47.3121 56.9148C45.8874 56.3851 45.376 57.2619 45.2482 57.2619C45.1203 57.2619 45.029 57.5724 45.029 57.5724C45.029 57.5724 46.6181 50.9603 41.9969 50.9603C39.111 50.9603 35.1291 54.1202 33.1565 56.9696C31.9144 57.6454 29.2659 59.0884 26.4348 60.6409C25.3571 61.2437 24.243 61.8465 23.2018 62.4127C23.1288 62.3396 23.0557 62.2483 22.9826 62.1752C17.3934 56.2025 7.05523 51.9832 7.4936 43.9647C7.65799 41.0422 8.66258 33.3707 27.3481 24.0554C42.7275 16.4752 54.9653 18.5758 57.0841 23.2334C60.1162 29.882 50.5269 42.2294 34.636 44.0194C28.5719 44.6953 25.3937 42.3573 24.59 41.4806C23.7498 40.5673 23.6219 40.5125 23.3114 40.6951C22.8 40.9691 23.1288 41.7911 23.3114 42.266C23.7863 43.508 25.7407 45.6999 29.0468 46.7775C31.9692 47.7273 39.0745 48.257 47.6774 44.9327C57.3033 41.2066 64.8286 30.8501 62.6185 22.174C60.4084 13.3701 45.7961 10.4659 31.9692 15.3793C23.7498 18.3018 14.8363 22.9047 8.42513 28.8957C0.808465 36.0192 -0.397049 42.2112 0.096116 44.8049C1.86786 54.0106 14.5623 60.0017 19.6401 64.4401C19.3844 64.5863 19.1469 64.7141 18.946 64.8237C16.4071 66.084 6.72645 71.1435 4.31542 76.4953C1.57561 82.5594 4.75379 86.9066 6.85431 87.4911C13.3751 89.2993 20.0784 86.0481 23.6767 80.6781C27.275 75.3081 26.8366 68.3307 25.1745 65.1342C25.1562 65.0977 25.138 65.0612 25.1014 65.0246C25.759 64.6411 26.4348 64.2392 27.0924 63.8557C28.3892 63.0885 29.6678 62.3762 30.7637 61.7917C30.1427 63.4903 29.686 65.5178 29.4669 68.4403C29.1929 71.8742 30.5993 76.3309 32.4441 78.0844C33.2661 78.8515 34.2341 78.8698 34.8551 78.8698C37.0105 78.8698 37.9785 77.0798 39.0562 74.961C40.3713 72.3673 41.5585 69.3535 41.5585 69.3535C41.5585 69.3535 40.079 77.4999 44.0974 77.4999C45.5587 77.4999 47.0382 75.6003 47.6957 74.6322C47.6957 74.6505 47.6957 74.6505 47.6957 74.6505C47.6957 74.6505 47.7322 74.5957 47.8053 74.4678C47.9514 74.2304 48.0428 74.0843 48.0428 74.0843C48.0428 74.0843 48.0428 74.066 48.0428 74.0477C48.6273 73.0249 49.9424 70.7052 51.8968 66.8512C54.4174 61.883 56.8467 55.6728 56.8467 55.6728C56.8467 55.6728 57.0659 57.1888 57.8147 59.7094C58.2531 61.1889 59.1664 62.8145 59.897 64.3853C59.3125 65.2073 58.9472 65.6639 58.9472 65.6639C58.9472 65.6639 58.9472 65.6639 58.9655 65.6822C58.4906 66.3032 57.9791 66.979 57.4129 67.6366C55.422 70.0111 53.0475 72.7326 52.7187 73.518C52.3351 74.4496 52.4265 75.1254 53.1571 75.6734C53.6868 76.0752 54.6366 76.13 55.6046 76.0752C57.3946 75.9473 58.6549 75.509 59.276 75.235C60.244 74.888 61.3765 74.3583 62.4359 73.5728C64.3903 72.1299 65.5775 70.0659 65.4679 67.3443C65.4131 65.8466 64.92 64.3488 64.3172 62.9424C64.4999 62.6867 64.6643 62.431 64.8469 62.1752C67.9338 57.6637 70.3265 52.7138 70.3265 52.7138C70.3265 52.7138 70.5457 54.2298 71.2946 56.7504C71.6599 58.029 72.4088 59.4172 73.0663 60.7688C70.1621 63.125 68.3721 65.8648 67.7328 67.6549C66.5821 70.9792 67.4771 72.4769 69.1758 72.824C69.943 72.9883 71.0389 72.623 71.8426 72.276C72.8654 71.9472 74.0709 71.381 75.2216 70.5408C77.176 69.0978 79.0574 67.0886 78.9478 64.3671C78.893 63.125 78.5642 61.9013 78.1076 60.714C80.5734 59.6912 83.7516 59.1249 87.8065 59.5998C96.5008 60.6227 98.2178 66.0475 97.889 68.3307C97.5602 70.6138 95.7337 71.8559 95.1309 72.2395C94.5282 72.623 94.3273 72.7509 94.382 73.0249C94.4551 73.4267 94.7474 73.4085 95.2588 73.3354C95.9711 73.2075 99.8251 71.4906 99.9895 67.2896C100.264 61.9195 95.1492 56.0563 86.1078 56.1111ZM19.0373 78.7237C16.1514 81.8653 12.133 83.0526 10.3978 82.048C8.53473 80.9703 9.26534 76.3309 12.8088 73.0066C14.9641 70.9792 17.7405 69.0978 19.5853 67.9471C20.0054 67.6914 20.6264 67.3261 21.3753 66.8694C21.5032 66.7964 21.5762 66.7598 21.5762 66.7598C21.7223 66.6685 21.8685 66.5772 22.0146 66.4859C23.3114 71.2349 22.0694 75.4176 19.0373 78.7237ZM40.0425 64.4401C39.0379 66.8877 36.9374 73.1527 35.6588 72.8057C34.5629 72.5134 33.8871 67.7645 35.4396 63.0702C36.2251 60.714 37.8872 57.9011 38.8553 56.8052C40.4261 55.0517 42.1613 54.4672 42.5814 55.1796C43.1111 56.1111 40.6635 62.9059 40.0425 64.4401ZM57.3764 72.7326C56.9563 72.9518 56.5544 73.0979 56.3718 72.9883C56.2439 72.9153 56.5544 72.623 56.5544 72.623C56.5544 72.623 58.728 70.2851 59.5865 69.2257C60.0796 68.6047 60.6641 67.874 61.2852 67.0521C61.2852 67.1252 61.2852 67.2165 61.2852 67.2896C61.2852 70.0842 58.5819 71.9655 57.3764 72.7326ZM70.7466 69.6823C70.4361 69.4631 70.4909 68.7325 71.532 66.4493C71.9339 65.5543 72.8837 64.0566 74.5093 62.6136C74.692 63.1981 74.8198 63.7643 74.8016 64.294C74.7833 67.8192 72.2627 69.1343 70.7466 69.6823Z" fill="#CD6799"/>
</svg>
