<svg width="100" height="100" viewBox="0 0 100 100" fill="none" xmlns="http://www.w3.org/2000/svg">
<g clip-path="url(#clip0_867_13930)">
<path d="M50.6168 97.2306C24.3612 97.2306 3 75.8714 3 49.6148C3 23.3583 24.3612 1.99902 50.6168 1.99902C76.8724 1.99902 98.2336 23.3603 98.2336 49.6158C98.2336 75.8714 76.8724 97.2306 50.6168 97.2306Z" fill="#85EA2D"/>
<path d="M49.9995 4.7654C74.9818 4.7654 95.2326 25.0163 95.2326 49.9985C95.2326 74.9798 74.9818 95.2316 49.9995 95.2316C25.0182 95.2316 4.76638 74.9798 4.76638 49.9985C4.76638 25.0173 25.0182 4.7654 49.9995 4.7654ZM49.9995 -0.000976562C22.4297 -0.000976562 0 22.4287 0 49.9985C0 77.5684 22.4297 99.998 49.9995 99.998C77.5693 99.998 100 77.5684 100 49.9985C100 22.4287 77.5693 -0.000976562 49.9995 -0.000976562Z" fill="#173647"/>
<path d="M31.9192 33.3876C31.7653 35.0987 31.9762 36.8677 31.8622 38.5978C31.7273 40.3288 31.5154 42.0399 31.1696 43.7509C30.6889 46.1926 29.1697 48.0386 27.0749 49.5767C31.1516 52.2303 31.6124 56.344 31.8812 60.5167C32.0161 62.7665 31.9582 65.0352 32.1891 67.265C32.362 68.9951 33.0346 69.4378 34.8236 69.4948C35.5542 69.5138 36.3028 69.4948 37.1503 69.4948V74.8398C31.8632 75.7433 27.4986 74.2442 26.4212 69.7646C26.0744 68.1305 25.8435 66.4574 25.7676 64.7654C25.6516 62.9774 25.8435 61.1893 25.7096 59.4013C25.3248 54.498 24.6902 52.8449 19.9998 52.6141V46.5194C20.3456 46.4425 20.6724 46.3845 21.0182 46.3465C23.5948 46.2116 24.6902 45.423 25.2479 42.8854C25.5177 41.4632 25.6716 40.021 25.7286 38.5598C25.9215 35.7723 25.8445 32.9269 26.3243 30.1584C26.9969 26.1786 29.4586 24.2557 33.5543 24.0248C34.7077 23.9668 35.881 24.0248 37.2073 24.0248V29.4858C36.6496 29.5248 36.1689 29.6007 35.6691 29.6007C32.343 29.4848 32.1691 30.6192 31.9192 33.3876ZM38.3217 46.0387H38.2447C36.3218 45.9427 34.6687 47.4419 34.5717 49.3649C34.4758 51.3068 35.975 52.9609 37.8979 53.0558H38.1288C40.0327 53.1718 41.6658 51.7096 41.7818 49.8066V49.6147C41.8208 47.6728 40.2636 46.0777 38.3217 46.0387ZM50.377 46.0387C48.5121 45.9807 46.9539 47.4419 46.897 49.2879C46.897 49.4038 46.897 49.4998 46.917 49.6147C46.917 51.7106 48.3392 53.0568 50.493 53.0568C52.6078 53.0568 53.9351 51.6726 53.9351 49.4998C53.9151 47.4039 52.5109 46.0197 50.377 46.0387ZM62.7213 46.0387C60.7603 45.9997 59.1252 47.5578 59.0683 49.5188C59.0683 51.4797 60.6444 53.0558 62.6053 53.0558H62.6443C64.4133 53.3637 66.2013 51.6526 66.3173 49.5957C66.4122 47.6918 64.6822 46.0387 62.7213 46.0387ZM79.6599 46.3265C77.4292 46.2306 76.3138 45.481 75.7571 43.3652C75.4103 42.0199 75.1994 40.6157 75.1224 39.2314C74.9685 36.6548 74.9875 34.0593 74.8146 31.4827C74.4108 25.369 69.9893 23.2352 63.5668 24.2916V29.5987C64.5852 29.5987 65.3738 29.5987 66.1624 29.6177C67.5276 29.6367 68.566 30.1564 68.7 31.6756C68.8349 33.0598 68.8349 34.463 68.9698 35.8673C69.2397 38.6557 69.3926 41.4812 69.8733 44.2307C70.2971 46.4994 71.8542 48.1915 73.7952 49.5757C70.393 51.8635 69.3926 55.1317 69.2197 58.8047C69.1237 61.3233 69.0658 63.8609 68.9318 66.3995C68.8159 68.7062 68.0093 69.4558 65.6826 69.5138C65.029 69.5328 64.3943 69.5907 63.6637 69.6297V75.0707C65.029 75.0707 66.2783 75.1477 67.5276 75.0707C71.4115 74.8398 73.7572 72.9559 74.5268 69.1869C74.8536 67.1101 75.0455 65.0152 75.1035 62.9194C75.2374 60.9965 75.2194 59.0545 75.4113 57.1516C75.6991 54.1712 77.0644 52.9409 80.0447 52.749C80.3336 52.71 80.6024 52.653 80.8723 52.5571V46.4614C80.3715 46.4035 80.0247 46.3465 79.6599 46.3265Z" fill="#173647"/>
</g>
<defs>
<clipPath id="clip0_867_13930">
<rect width="100" height="100" fill="white"/>
</clipPath>
</defs>
</svg>
